<svg xmlns="http://www.w3.org/2000/svg" xmlns:xlink="http://www.w3.org/1999/xlink" width="269"
    zoomAndPan="magnify" viewBox="0 0 201.75 42" height="56" preserveAspectRatio="xMidYMid meet"
    version="1.0">
    <defs>
        <g />
        <clipPath id="id1">
            <path
                d="M 6.332031 5.144531 L 33.46875 5.144531 L 33.46875 35.949219 L 6.332031 35.949219 Z M 6.332031 5.144531 "
                clip-rule="nonzero" />
        </clipPath>
    </defs>
    <path fill="#5e17eb"
        d="M 28.695312 15.488281 C 28.640625 15.390625 28.570312 15.289062 28.417969 15.214844 L 26.269531 13.980469 C 26.242188 13.960938 26.207031 13.949219 26.175781 13.941406 C 26.164062 13.9375 26.152344 13.9375 26.140625 13.9375 C 26.121094 13.933594 26.097656 13.929688 26.074219 13.929688 L 26.070312 13.929688 C 26.007812 13.929688 25.945312 13.949219 25.890625 13.980469 L 21.054688 16.757812 L 21.050781 16.75 L 20.660156 16.972656 C 20.191406 17.242188 19.609375 17.242188 19.140625 16.972656 L 17.027344 15.757812 C 16.910156 15.691406 16.835938 15.566406 16.835938 15.433594 C 16.835938 15.296875 16.910156 15.171875 17.027344 15.105469 L 19.140625 13.890625 C 19.609375 13.621094 20.191406 13.621094 20.660156 13.890625 L 21.167969 14.183594 C 21.285156 14.25 21.429688 14.25 21.546875 14.183594 L 23.515625 13.054688 C 23.636719 12.984375 23.707031 12.859375 23.707031 12.726562 C 23.707031 12.589844 23.636719 12.464844 23.515625 12.398438 L 20.660156 10.757812 C 20.191406 10.488281 19.609375 10.488281 19.140625 10.757812 L 12.140625 14.777344 C 11.632812 15.070312 11.632812 15.796875 12.140625 16.085938 L 19.140625 20.105469 C 19.609375 20.375 20.191406 20.375 20.660156 20.105469 L 26.070312 17 L 26.070312 24.078125 L 24.332031 25.082031 L 20.660156 27.195312 C 20.542969 27.261719 20.417969 27.3125 20.289062 27.347656 C 19.902344 27.449219 19.488281 27.394531 19.140625 27.195312 L 14.109375 24.304688 C 13.875 24.171875 13.730469 23.921875 13.730469 23.652344 L 13.730469 19.523438 C 13.730469 19.390625 13.65625 19.265625 13.539062 19.199219 L 11.570312 18.066406 C 11.453125 18 11.308594 18 11.191406 18.066406 C 11.074219 18.132812 11 18.257812 11 18.394531 L 11 25.21875 C 11 25.488281 11.144531 25.738281 11.382812 25.875 L 19.140625 30.328125 C 19.367188 30.460938 19.625 30.53125 19.890625 30.53125 L 19.894531 30.53125 C 19.933594 30.53125 19.96875 30.527344 20.007812 30.523438 C 20.035156 30.523438 20.0625 30.523438 20.09375 30.519531 C 20.132812 30.515625 20.171875 30.503906 20.207031 30.496094 C 20.234375 30.492188 20.261719 30.488281 20.289062 30.480469 C 20.328125 30.472656 20.371094 30.457031 20.410156 30.441406 C 20.433594 30.433594 20.457031 30.425781 20.476562 30.417969 C 20.539062 30.394531 20.601562 30.363281 20.660156 30.328125 L 27.355469 26.484375 L 28.414062 25.886719 C 28.652344 25.753906 28.800781 25.5 28.800781 25.230469 L 28.800781 15.867188 C 28.800781 15.734375 28.761719 15.601562 28.695312 15.488281 "
        fill-opacity="1" fill-rule="nonzero" />
    <g clip-path="url(#id1)">
        <path fill="#5e17eb"
            d="M 20.640625 8.496094 C 20.414062 8.367188 20.160156 8.296875 19.898438 8.296875 C 19.640625 8.296875 19.386719 8.367188 19.160156 8.496094 L 9.808594 13.867188 C 9.339844 14.136719 9.050781 14.632812 9.050781 15.171875 L 9.050781 25.914062 C 9.050781 26.453125 9.339844 26.949219 9.808594 27.21875 L 19.160156 32.589844 C 19.386719 32.722656 19.648438 32.789062 19.910156 32.792969 C 20.175781 32.789062 20.433594 32.722656 20.664062 32.589844 L 29.972656 27.242188 C 30.441406 26.972656 30.730469 26.476562 30.730469 25.9375 L 30.730469 22.835938 C 30.730469 22.699219 30.800781 22.574219 30.917969 22.507812 L 32.902344 21.371094 C 33.019531 21.300781 33.164062 21.300781 33.28125 21.371094 C 33.398438 21.4375 33.46875 21.5625 33.46875 21.695312 L 33.46875 27.476562 C 33.46875 27.722656 33.40625 27.964844 33.289062 28.183594 C 33.261719 28.324219 33.105469 28.492188 32.882812 28.664062 C 32.878906 28.667969 32.875 28.671875 32.867188 28.679688 C 32.308594 29.109375 31.382812 29.558594 31.21875 29.652344 L 20.664062 35.714844 C 20.425781 35.851562 20.15625 35.917969 19.886719 35.917969 L 19.875 35.917969 L 19.875 35.914062 C 19.621094 35.910156 19.375 35.839844 19.160156 35.714844 L 7.089844 28.78125 C 6.621094 28.511719 6.332031 28.015625 6.332031 27.476562 L 6.332031 13.609375 C 6.332031 13.367188 6.363281 13.121094 6.46875 12.914062 C 6.484375 12.859375 6.628906 12.59375 6.929688 12.375 C 7.042969 12.296875 7.246094 12.195312 7.433594 12.085938 L 19.125 5.371094 C 19.359375 5.238281 19.628906 5.167969 19.902344 5.171875 C 20.171875 5.167969 20.441406 5.238281 20.675781 5.371094 L 31.464844 11.566406 C 31.488281 11.582031 31.507812 11.601562 31.527344 11.617188 L 31.664062 11.695312 C 32.03125 11.890625 32.605469 12.183594 32.917969 12.417969 L 32.945312 12.4375 C 32.949219 12.441406 32.953125 12.445312 32.957031 12.445312 C 32.96875 12.457031 32.972656 12.464844 32.984375 12.476562 C 33.101562 12.570312 33.195312 12.683594 33.273438 12.808594 C 33.273438 12.808594 33.277344 12.8125 33.277344 12.8125 C 33.402344 13.023438 33.46875 13.261719 33.46875 13.503906 L 33.46875 18.582031 C 33.46875 18.71875 33.398438 18.84375 33.28125 18.910156 L 31.296875 20.050781 C 31.179688 20.117188 31.035156 20.117188 30.917969 20.050781 C 30.800781 19.980469 30.730469 19.855469 30.730469 19.722656 L 30.730469 15.144531 C 30.730469 14.605469 30.441406 14.105469 29.96875 13.835938 Z M 20.640625 8.496094 "
            fill-opacity="1" fill-rule="nonzero" />
    </g>
    <g fill="#5e17eb" fill-opacity="1">
        <g transform="translate(37.659544, 30.704943)">
            <g>
                <path
                    d="M 12.734375 -19 L 18.46875 -19 L 12.25 0 L 6.203125 0 L 0 -19 L 5.765625 -19 L 8.359375 -9.375 C 8.898438 -7.226562 9.195312 -5.738281 9.25 -4.90625 C 9.300781 -5.507812 9.414062 -6.265625 9.59375 -7.171875 C 9.78125 -8.085938 9.945312 -8.804688 10.09375 -9.328125 Z M 12.734375 -19 " />
            </g>
        </g>
    </g>
    <g fill="#5e17eb" fill-opacity="1">
        <g transform="translate(56.125936, 30.704943)">
            <g>
                <path
                    d="M 15.84375 -12.96875 C 15.84375 -10.84375 15.21875 -9.203125 13.96875 -8.046875 C 12.71875 -6.890625 10.9375 -6.3125 8.625 -6.3125 L 7.1875 -6.3125 L 7.1875 0 L 2.046875 0 L 2.046875 -19 L 8.625 -19 C 11.03125 -19 12.832031 -18.472656 14.03125 -17.421875 C 15.238281 -16.378906 15.84375 -14.894531 15.84375 -12.96875 Z M 7.1875 -10.484375 L 8.125 -10.484375 C 8.894531 -10.484375 9.503906 -10.703125 9.953125 -11.140625 C 10.410156 -11.578125 10.640625 -12.175781 10.640625 -12.9375 C 10.640625 -14.21875 9.929688 -14.859375 8.515625 -14.859375 L 7.1875 -14.859375 Z M 7.1875 -10.484375 " />
            </g>
        </g>
    </g>
    <g fill="#5e17eb" fill-opacity="1">
        <g transform="translate(72.941918, 30.704943)">
            <g>
                <path
                    d="M 20.15625 0 L 13.421875 0 L 6.46875 -13.390625 L 6.359375 -13.390625 C 6.523438 -11.285156 6.609375 -9.675781 6.609375 -8.5625 L 6.609375 0 L 2.046875 0 L 2.046875 -19 L 8.765625 -19 L 15.671875 -5.796875 L 15.75 -5.796875 C 15.632812 -7.710938 15.578125 -9.25 15.578125 -10.40625 L 15.578125 -19 L 20.15625 -19 Z M 20.15625 0 " />
            </g>
        </g>
    </g>
    <g fill="#5e17eb" fill-opacity="1">
        <g transform="translate(95.137975, 30.704943)">
            <g>
                <path
                    d="M 14.484375 -5.765625 C 14.484375 -4.585938 14.179688 -3.539062 13.578125 -2.625 C 12.984375 -1.71875 12.125 -1.007812 11 -0.5 C 9.875 0.0078125 8.550781 0.265625 7.03125 0.265625 C 5.769531 0.265625 4.707031 0.175781 3.84375 0 C 2.988281 -0.175781 2.097656 -0.488281 1.171875 -0.9375 L 1.171875 -5.515625 C 2.148438 -5.015625 3.164062 -4.617188 4.21875 -4.328125 C 5.28125 -4.046875 6.253906 -3.90625 7.140625 -3.90625 C 7.898438 -3.90625 8.457031 -4.035156 8.8125 -4.296875 C 9.164062 -4.566406 9.34375 -4.910156 9.34375 -5.328125 C 9.34375 -5.585938 9.269531 -5.816406 9.125 -6.015625 C 8.988281 -6.210938 8.757812 -6.410156 8.4375 -6.609375 C 8.125 -6.804688 7.285156 -7.210938 5.921875 -7.828125 C 4.679688 -8.390625 3.75 -8.929688 3.125 -9.453125 C 2.507812 -9.984375 2.050781 -10.59375 1.75 -11.28125 C 1.445312 -11.96875 1.296875 -12.78125 1.296875 -13.71875 C 1.296875 -15.46875 1.929688 -16.832031 3.203125 -17.8125 C 4.484375 -18.789062 6.238281 -19.28125 8.46875 -19.28125 C 10.4375 -19.28125 12.441406 -18.828125 14.484375 -17.921875 L 12.90625 -13.953125 C 11.132812 -14.765625 9.601562 -15.171875 8.3125 -15.171875 C 7.644531 -15.171875 7.15625 -15.050781 6.84375 -14.8125 C 6.539062 -14.582031 6.390625 -14.296875 6.390625 -13.953125 C 6.390625 -13.578125 6.582031 -13.238281 6.96875 -12.9375 C 7.351562 -12.644531 8.398438 -12.113281 10.109375 -11.34375 C 11.753906 -10.601562 12.894531 -9.8125 13.53125 -8.96875 C 14.164062 -8.125 14.484375 -7.054688 14.484375 -5.765625 Z M 14.484375 -5.765625 " />
            </g>
        </g>
    </g>
    <g fill="#5e17eb" fill-opacity="1">
        <g transform="translate(110.498474, 30.704943)">
            <g>
                <path
                    d="M 10.4375 0 L 5.296875 0 L 5.296875 -14.8125 L 0.65625 -14.8125 L 0.65625 -19 L 15.0625 -19 L 15.0625 -14.8125 L 10.4375 -14.8125 Z M 10.4375 0 " />
            </g>
        </g>
    </g>
    <g fill="#5e17eb" fill-opacity="1">
        <g transform="translate(126.222846, 30.704943)">
            <g>
                <path
                    d="M 19.84375 -9.53125 C 19.84375 -6.332031 19.054688 -3.898438 17.484375 -2.234375 C 15.910156 -0.566406 13.613281 0.265625 10.59375 0.265625 C 7.613281 0.265625 5.328125 -0.570312 3.734375 -2.25 C 2.148438 -3.925781 1.359375 -6.363281 1.359375 -9.5625 C 1.359375 -12.71875 2.144531 -15.128906 3.71875 -16.796875 C 5.300781 -18.472656 7.601562 -19.3125 10.625 -19.3125 C 13.644531 -19.3125 15.9375 -18.484375 17.5 -16.828125 C 19.0625 -15.171875 19.84375 -12.738281 19.84375 -9.53125 Z M 6.765625 -9.53125 C 6.765625 -5.851562 8.039062 -4.015625 10.59375 -4.015625 C 11.894531 -4.015625 12.859375 -4.457031 13.484375 -5.34375 C 14.117188 -6.238281 14.4375 -7.632812 14.4375 -9.53125 C 14.4375 -11.425781 14.113281 -12.828125 13.46875 -13.734375 C 12.832031 -14.640625 11.882812 -15.09375 10.625 -15.09375 C 8.050781 -15.09375 6.765625 -13.238281 6.765625 -9.53125 Z M 6.765625 -9.53125 " />
            </g>
        </g>
    </g>
    <g fill="#5e17eb" fill-opacity="1">
        <g transform="translate(147.431257, 30.704943)">
            <g>
                <path
                    d="M 7.1875 -6.921875 L 7.1875 0 L 2.046875 0 L 2.046875 -19 L 8.28125 -19 C 13.445312 -19 16.03125 -17.128906 16.03125 -13.390625 C 16.03125 -11.191406 14.957031 -9.488281 12.8125 -8.28125 L 18.34375 0 L 12.515625 0 L 8.484375 -6.921875 Z M 7.1875 -10.78125 L 8.15625 -10.78125 C 9.945312 -10.78125 10.84375 -11.570312 10.84375 -13.15625 C 10.84375 -14.46875 9.960938 -15.125 8.203125 -15.125 L 7.1875 -15.125 Z M 7.1875 -10.78125 " />
            </g>
        </g>
    </g>
    <g fill="#5e17eb" fill-opacity="1">
        <g transform="translate(165.442811, 30.704943)">
            <g>
                <path
                    d="M 13.34375 0 L 2.046875 0 L 2.046875 -19 L 13.34375 -19 L 13.34375 -14.890625 L 7.1875 -14.890625 L 7.1875 -11.890625 L 12.890625 -11.890625 L 12.890625 -7.78125 L 7.1875 -7.78125 L 7.1875 -4.1875 L 13.34375 -4.1875 Z M 13.34375 0 " />
            </g>
        </g>
    </g>
    <g fill="#5e17eb" fill-opacity="1">
        <g transform="translate(180.049584, 30.704943)">
            <g>
                <path
                    d="M 14.484375 -5.765625 C 14.484375 -4.585938 14.179688 -3.539062 13.578125 -2.625 C 12.984375 -1.71875 12.125 -1.007812 11 -0.5 C 9.875 0.0078125 8.550781 0.265625 7.03125 0.265625 C 5.769531 0.265625 4.707031 0.175781 3.84375 0 C 2.988281 -0.175781 2.097656 -0.488281 1.171875 -0.9375 L 1.171875 -5.515625 C 2.148438 -5.015625 3.164062 -4.617188 4.21875 -4.328125 C 5.28125 -4.046875 6.253906 -3.90625 7.140625 -3.90625 C 7.898438 -3.90625 8.457031 -4.035156 8.8125 -4.296875 C 9.164062 -4.566406 9.34375 -4.910156 9.34375 -5.328125 C 9.34375 -5.585938 9.269531 -5.816406 9.125 -6.015625 C 8.988281 -6.210938 8.757812 -6.410156 8.4375 -6.609375 C 8.125 -6.804688 7.285156 -7.210938 5.921875 -7.828125 C 4.679688 -8.390625 3.75 -8.929688 3.125 -9.453125 C 2.507812 -9.984375 2.050781 -10.59375 1.75 -11.28125 C 1.445312 -11.96875 1.296875 -12.78125 1.296875 -13.71875 C 1.296875 -15.46875 1.929688 -16.832031 3.203125 -17.8125 C 4.484375 -18.789062 6.238281 -19.28125 8.46875 -19.28125 C 10.4375 -19.28125 12.441406 -18.828125 14.484375 -17.921875 L 12.90625 -13.953125 C 11.132812 -14.765625 9.601562 -15.171875 8.3125 -15.171875 C 7.644531 -15.171875 7.15625 -15.050781 6.84375 -14.8125 C 6.539062 -14.582031 6.390625 -14.296875 6.390625 -13.953125 C 6.390625 -13.578125 6.582031 -13.238281 6.96875 -12.9375 C 7.351562 -12.644531 8.398438 -12.113281 10.109375 -11.34375 C 11.753906 -10.601562 12.894531 -9.8125 13.53125 -8.96875 C 14.164062 -8.125 14.484375 -7.054688 14.484375 -5.765625 Z M 14.484375 -5.765625 " />
            </g>
        </g>
    </g>
</svg>
