<?xml version="1.0" encoding="UTF-8"?>
<!DOCTYPE svg PUBLIC "-//W3C//DTD SVG 1.1//EN" "http://www.w3.org/Graphics/SVG/1.1/DTD/svg11.dtd">
<!-- Creator: CorelDRAW X7 -->
<svg xmlns="http://www.w3.org/2000/svg" xml:space="preserve" width="50px" height="50px" version="1.1" style="shape-rendering:geometricPrecision; text-rendering:geometricPrecision; image-rendering:optimizeQuality; fill-rule:evenodd; clip-rule:evenodd"
viewBox="0 0 1667 1667"
 xmlns:xlink="http://www.w3.org/1999/xlink">
 <defs>
  <style type="text/css">
   <![CDATA[
    .fil0 {fill:none}
    .fil1 {fill:white}
    .fil2 {fill:url(#id0)}
    .fil3 {fill:url(#id1)}
    .fil4 {fill:url(#id2)}
   ]]>
  </style>
  <linearGradient id="id0" gradientUnits="userSpaceOnUse" x1="833.333" y1="6.99833" x2="833.333" y2="1659.67">
   <stop offset="0" style="stop-opacity:1; stop-color:#CFD0D2"/>
   <stop offset="0.909804" style="stop-opacity:1; stop-color:#DBDCDD"/>
   <stop offset="1" style="stop-opacity:1; stop-color:#AAACAD"/>
  </linearGradient>
  <linearGradient id="id1" gradientUnits="userSpaceOnUse" x1="833.333" y1="833.333" x2="833.333" y2="6.99833">
   <stop offset="0" style="stop-opacity:1; stop-color:#DB0D82"/>
   <stop offset="0.811765" style="stop-opacity:1; stop-color:#DB0D82"/>
   <stop offset="1" style="stop-opacity:1; stop-color:#E3419D"/>
  </linearGradient>
  <linearGradient id="id2" gradientUnits="userSpaceOnUse" x1="833.333" y1="1643.14" x2="833.333" y2="23.525">
   <stop offset="0" style="stop-opacity:1; stop-color:#AE146B"/>
   <stop offset="0.478431" style="stop-opacity:1; stop-color:#9A1963"/>
   <stop offset="0.878431" style="stop-opacity:1; stop-color:#7B1A54"/>
   <stop offset="1" style="stop-opacity:1; stop-color:#9C537E"/>
  </linearGradient>
 </defs>
 <g id="Layer_x0020_1">
  <metadata id="CorelCorpID_0Corel-Layer"/>
  <g id="_2809884015696">
   <rect class="fil0" width="1667" height="1667"/>
   <g>
    <path class="fil1" d="M176 7l1315 0c93,0 169,76 169,169l0 1315c0,93 -76,169 -169,169l-1315 0c-93,0 -169,-76 -169,-169l0 -1315c0,-93 76,-169 169,-169z"/>
    <polygon class="fil1" points="7,833 833,7 1660,833 833,1660 "/>
    <path class="fil2" d="M721 119l939 714 -827 827 -113 -114 940 -713 -1443 -209 -210 209 206 206 1447 -206 0 658c0,93 -76,169 -169,169l-658 0 -657 0c-93,0 -169,-76 -169,-169l0 -658 1653 0 -1260 393 166 166 1094 -559 -1088 -565 -173 174 1261 391 -827 -826 -112 112z"/>
    <path class="fil3" d="M399 442l173 -174 1088 565 -1261 -391zm322 -323l112 -112 -657 0c-93,0 -169,76 -169,169l0 657 210 -209 1443 209 -939 -714z"/>
    <path class="fil4" d="M833 7l827 826 -1653 0 206 206 1447 -206 -1260 393 166 166 1094 -559 -940 713 113 114 827 -827 0 -657c0,-93 -76,-169 -169,-169l-658 0z"/>
   </g>
  </g>
 </g>
</svg>
