<?xml version="1.0" encoding="UTF-8"?>
<!DOCTYPE svg PUBLIC "-//W3C//DTD SVG 1.1//EN" "http://www.w3.org/Graphics/SVG/1.1/DTD/svg11.dtd">
<!-- Creator: CorelDRAW X7 -->
<svg xmlns="http://www.w3.org/2000/svg" xml:space="preserve" width="50px" height="50px" version="1.1" style="shape-rendering:geometricPrecision; text-rendering:geometricPrecision; image-rendering:optimizeQuality; fill-rule:evenodd; clip-rule:evenodd"
viewBox="0 0 5000 5000"
 xmlns:xlink="http://www.w3.org/1999/xlink">
 <defs>
  <style type="text/css">
   <![CDATA[
    .fil0 {fill:none}
    .fil1 {fill:#332C2B}
   ]]>
  </style>
 </defs>
 <g id="Layer_x0020_1">
  <metadata id="CorelCorpID_0Corel-Layer"/>
  <g id="_1993594947344">
   <rect class="fil0" width="5000" height="5000"/>
   <g>
    <g>
     <polygon class="fil1" points="2319,1275 353,2172 353,1673 1759,1112 1759,1103 353,501 353,0 2319,935 "/>
     <polygon class="fil1" points="4647,2172 2537,2172 2537,1876 4647,1876 "/>
    </g>
    <path class="fil1" d="M232 4899l0 -403c73,61 153,107 238,138 86,30 173,46 260,46 52,0 96,-5 134,-14 39,-9 70,-22 96,-39 26,-16 45,-35 57,-57 13,-23 19,-47 19,-73 0,-35 -9,-67 -30,-94 -20,-28 -48,-54 -82,-77 -35,-24 -77,-47 -125,-68 -48,-22 -99,-45 -155,-68 -141,-58 -246,-130 -316,-215 -69,-85 -103,-188 -103,-308 0,-94 18,-175 56,-242 38,-68 90,-124 154,-168 66,-43 141,-76 227,-96 86,-21 176,-31 272,-31 95,0 178,6 251,17 72,11 139,29 201,52l0 377c-31,-21 -63,-39 -99,-55 -36,-16 -73,-29 -111,-40 -37,-10 -75,-18 -113,-23 -37,-5 -72,-8 -106,-8 -46,0 -88,5 -126,13 -38,9 -70,22 -96,38 -26,16 -46,35 -61,57 -14,22 -21,47 -21,75 0,30 8,58 24,81 16,24 39,47 68,69 30,21 65,42 108,63 41,20 89,41 142,63 72,30 137,63 195,97 57,34 107,72 148,115 41,43 73,92 94,147 22,55 33,119 33,192 0,101 -19,186 -57,255 -38,68 -90,124 -156,166 -65,42 -141,73 -229,91 -87,19 -179,28 -275,28 -99,0 -194,-8 -283,-25 -90,-17 -168,-42 -233,-76zm1448 0l0 -403c73,61 152,107 238,138 86,30 172,46 260,46 51,0 96,-5 134,-14 38,-9 70,-22 96,-39 26,-16 45,-35 57,-57 13,-23 19,-47 19,-73 0,-35 -10,-67 -30,-94 -20,-28 -48,-54 -83,-77 -35,-24 -76,-47 -124,-68 -48,-22 -100,-45 -155,-68 -141,-58 -247,-130 -316,-215 -69,-85 -104,-188 -104,-308 0,-94 19,-175 57,-242 38,-68 89,-124 154,-168 66,-43 141,-76 227,-96 85,-21 176,-31 272,-31 94,0 178,6 251,17 72,11 139,29 201,52l0 377c-31,-21 -64,-39 -99,-55 -36,-16 -73,-29 -111,-40 -38,-10 -75,-18 -113,-23 -37,-5 -73,-8 -106,-8 -47,0 -88,5 -126,13 -38,9 -70,22 -96,38 -26,16 -46,35 -61,57 -14,22 -21,47 -21,75 0,30 8,58 24,81 16,24 38,47 68,69 29,21 65,42 107,63 42,20 90,41 143,63 72,30 137,63 194,97 58,34 107,72 148,115 42,43 73,92 95,147 22,55 33,119 33,192 0,101 -19,186 -57,255 -39,68 -90,124 -156,166 -66,42 -142,73 -229,91 -87,19 -179,28 -276,28 -99,0 -193,-8 -283,-25 -89,-17 -167,-42 -232,-76zm3095 70l-408 0 0 -737 -749 0 0 737 -408 0 0 -1809 408 0 0 722 749 0 0 -722 408 0 0 1809z"/>
   </g>
  </g>
 </g>
</svg>
