<?xml version="1.0" encoding="UTF-8"?>
<!DOCTYPE svg PUBLIC "-//W3C//DTD SVG 1.1//EN" "http://www.w3.org/Graphics/SVG/1.1/DTD/svg11.dtd">
<!-- Creator: CorelDRAW X7 -->
<svg xmlns="http://www.w3.org/2000/svg" xml:space="preserve" width="184px" height="50px" version="1.1" style="shape-rendering:geometricPrecision; text-rendering:geometricPrecision; image-rendering:optimizeQuality; fill-rule:evenodd; clip-rule:evenodd"
viewBox="0 0 2379 646"
 xmlns:xlink="http://www.w3.org/1999/xlink">
 <defs>
  <style type="text/css">
   <![CDATA[
    .fil0 {fill:none}
    .fil2 {fill:#0A3667}
    .fil1 {fill:#F58220}
   ]]>
  </style>
 </defs>
 <g id="Layer_x0020_1">
  <metadata id="CorelCorpID_0Corel-Layer"/>
  <g id="_1525851412640">
   <g>
    <g id="_1993594942640">
     <polygon class="fil0" points="0,646 646,646 646,0 0,0 "/>
     <g>
      <path class="fil1" d="M323 10c175,0 317,142 317,318 0,118 -64,221 -160,276l-21 -149c31,-34 50,-78 50,-127 0,-103 -83,-187 -186,-187 -103,0 -187,84 -187,187 0,49 20,93 51,127l-21 149c-96,-55 -161,-158 -161,-276 0,-176 143,-318 318,-318l0 0z"/>
      <path class="fil2" d="M323 234c52,0 94,42 94,94 0,40 -26,75 -63,88l44 220c-24,-6 -49,-10 -75,-10 -26,0 -51,4 -76,10l44 -220c-36,-13 -62,-48 -62,-88 0,-52 42,-94 94,-94l0 0z"/>
     </g>
    </g>
   </g>
   <g>
    <path class="fil1" d="M744 324c0,-25 4,-46 11,-63 6,-12 13,-23 23,-33 10,-10 20,-18 32,-23 15,-6 33,-9 53,-9 36,0 65,11 87,33 21,23 32,54 32,94 0,40 -11,71 -32,94 -22,22 -51,33 -87,33 -36,0 -65,-11 -87,-33 -21,-23 -32,-53 -32,-93zm51 -1c0,28 6,49 19,63 13,14 29,22 49,22 20,0 36,-7 49,-22 13,-14 19,-35 19,-64 0,-28 -6,-49 -19,-63 -12,-14 -28,-21 -49,-21 -20,0 -37,7 -49,21 -13,14 -19,35 -19,64z"/>
    <path class="fil1" d="M1021 446l0 -246 79 0c31,0 50,1 59,4 14,4 26,12 36,24 9,12 14,28 14,48 0,15 -3,27 -8,38 -6,10 -13,18 -21,24 -9,6 -17,10 -26,12 -12,2 -29,3 -51,3l-32 0 0 93 -50 0zm50 -204l0 70 27 0c19,0 32,-2 39,-4 6,-3 11,-7 15,-12 4,-6 6,-12 6,-20 0,-9 -3,-16 -8,-22 -5,-6 -12,-9 -20,-11 -6,-1 -18,-1 -36,-1l-23 0z"/>
    <polygon class="fil1" points="1250,446 1250,200 1431,200 1431,242 1299,242 1299,296 1422,296 1422,338 1299,338 1299,404 1436,404 1436,446 "/>
    <polygon class="fil1" points="1478,446 1478,200 1527,200 1628,365 1628,200 1674,200 1674,446 1624,446 1524,284 1524,446 "/>
    <polygon class="fil2" points="1789,446 1701,200 1755,200 1817,382 1877,200 1930,200 1842,446 "/>
    <path class="fil2" d="M1955 446l0 -246 79 0c30,0 50,1 59,4 14,4 26,12 36,24 9,12 14,28 14,48 0,15 -3,27 -8,38 -6,10 -13,18 -21,24 -9,6 -17,10 -26,12 -12,2 -29,3 -51,3l-32 0 0 93 -50 0zm50 -204l0 70 27 0c19,0 32,-2 39,-4 6,-3 11,-7 15,-12 4,-6 6,-12 6,-20 0,-9 -3,-16 -8,-22 -5,-6 -12,-9 -20,-11 -6,-1 -18,-1 -36,-1l-23 0z"/>
    <polygon class="fil2" points="2184,446 2184,200 2232,200 2333,365 2333,200 2379,200 2379,446 2329,446 2230,284 2230,446 "/>
   </g>
  </g>
 </g>
</svg>
