<?xml version="1.0" encoding="UTF-8"?>
<!DOCTYPE svg PUBLIC "-//W3C//DTD SVG 1.1//EN" "http://www.w3.org/Graphics/SVG/1.1/DTD/svg11.dtd">
<!-- Creator: CorelDRAW X7 -->
<svg xmlns="http://www.w3.org/2000/svg" xml:space="preserve" width="184px" height="50px" version="1.1" style="shape-rendering:geometricPrecision; text-rendering:geometricPrecision; image-rendering:optimizeQuality; fill-rule:evenodd; clip-rule:evenodd"
viewBox="0 0 3298 896"
 xmlns:xlink="http://www.w3.org/1999/xlink">
 <defs>
  <style type="text/css">
   <![CDATA[
    .fil0 {fill:none}
    .fil1 {fill:#1A7DC0}
   ]]>
  </style>
 </defs>
 <g id="Layer_x0020_1">
  <metadata id="CorelCorpID_0Corel-Layer"/>
  <g id="_1525859135504">
   <g>
    <g id="_1993594924240">
     <polygon class="fil0" points="0,896 896,896 896,0 0,0 "/>
     <path class="fil1" d="M30 476l836 -419 -153 634 -311 -98 267 -339 -380 303 -259 -81 0 0zm368 195l95 30 -95 138 0 -168z"/>
    </g>
   </g>
   <path class="fil1" d="M1121 574c-18,0 -35,-3 -51,-8 -16,-6 -28,-14 -37,-23l10 -19c8,9 20,15 34,21 14,5 29,8 44,8 21,0 37,-4 47,-12 11,-8 16,-18 16,-30 0,-10 -3,-17 -9,-23 -5,-5 -12,-10 -21,-13 -8,-3 -20,-6 -34,-10 -18,-4 -32,-9 -43,-13 -11,-4 -20,-10 -27,-19 -8,-8 -11,-20 -11,-35 0,-11 3,-22 9,-32 6,-10 16,-18 29,-24 13,-5 29,-8 49,-8 13,0 26,2 39,5 13,4 24,9 34,16l-9 20c-9,-7 -20,-12 -31,-15 -12,-3 -23,-5 -33,-5 -21,0 -37,4 -47,12 -11,8 -16,18 -16,31 0,9 3,17 9,23 6,5 13,10 21,13 9,3 21,6 35,10 18,4 32,8 42,12 11,5 20,11 28,19 7,9 11,20 11,35 0,11 -4,22 -10,32 -6,10 -16,18 -29,23 -14,6 -30,9 -49,9zm227 -181c23,0 40,7 54,19 13,13 19,32 19,57l0 103 -24 0 0 -101c0,-18 -4,-32 -14,-42 -9,-9 -22,-14 -39,-14 -19,0 -34,5 -45,17 -12,11 -17,27 -17,47l0 93 -24 0 0 -250 24 0 0 103c6,-10 15,-18 27,-23 11,-6 25,-9 39,-9zm200 0c24,0 41,6 54,17 12,12 18,29 18,52l0 110 -23 0 0 -28c-5,10 -13,17 -23,22 -11,5 -23,8 -38,8 -19,0 -35,-5 -47,-15 -12,-9 -17,-21 -17,-37 0,-15 5,-27 16,-36 11,-10 28,-14 52,-14l56 0 0 -11c0,-15 -4,-27 -12,-35 -9,-8 -21,-12 -38,-12 -11,0 -22,2 -32,6 -11,3 -20,8 -27,15l-11 -18c9,-8 20,-14 33,-18 12,-4 26,-6 39,-6zm-8 162c14,0 25,-3 35,-10 9,-6 17,-15 21,-26l0 -29 -55 0c-31,0 -46,10 -46,31 0,11 4,19 12,25 8,6 19,9 33,9zm308 -233l0 250 -23 0 0 -35c-7,12 -17,21 -28,27 -12,6 -25,10 -40,10 -17,0 -32,-4 -46,-12 -13,-7 -24,-18 -31,-32 -8,-14 -12,-29 -12,-47 0,-17 4,-33 12,-47 7,-13 18,-24 31,-32 14,-7 29,-11 46,-11 14,0 27,3 39,9 11,6 21,15 28,26l0 -106 24 0zm-89 230c12,0 23,-2 33,-8 10,-6 18,-14 24,-25 6,-10 9,-22 9,-36 0,-13 -3,-25 -9,-36 -6,-10 -14,-19 -24,-24 -10,-6 -21,-9 -33,-9 -13,0 -24,3 -34,9 -10,5 -18,14 -24,24 -6,11 -8,23 -8,36 0,14 2,26 8,36 6,11 14,19 24,25 10,6 21,8 34,8zm229 22c-18,0 -33,-4 -47,-12 -13,-8 -24,-19 -32,-32 -8,-14 -12,-29 -12,-47 0,-17 4,-33 12,-46 8,-14 19,-25 32,-32 14,-8 29,-12 47,-12 17,0 32,4 46,12 13,7 24,18 32,32 8,13 12,29 12,46 0,18 -4,33 -12,47 -8,13 -19,24 -32,32 -14,8 -29,12 -46,12zm0 -22c12,0 23,-2 33,-8 10,-6 18,-14 24,-25 6,-10 8,-22 8,-36 0,-13 -2,-25 -8,-36 -6,-10 -14,-19 -24,-24 -10,-6 -21,-9 -33,-9 -13,0 -24,3 -34,9 -10,5 -18,14 -24,24 -6,11 -9,23 -9,36 0,14 3,26 9,36 6,11 14,19 24,25 10,6 21,8 34,8zm394 -158l-67 178 -23 0 -56 -145 -56 145 -22 0 -67 -178 23 0 55 151 57 -151 21 0 57 151 56 -151 22 0zm82 180c-15,0 -28,-2 -42,-7 -13,-4 -23,-9 -31,-15l11 -19c8,6 17,10 28,14 12,4 23,6 35,6 17,0 29,-3 36,-8 8,-5 12,-12 12,-21 0,-7 -2,-12 -6,-16 -5,-3 -10,-6 -17,-8 -6,-2 -15,-4 -26,-6 -14,-2 -26,-5 -34,-8 -9,-3 -17,-8 -23,-14 -6,-7 -9,-16 -9,-28 0,-15 6,-27 18,-37 13,-9 30,-14 52,-14 12,0 23,2 34,5 12,3 21,7 29,12l-11 19c-14,-10 -32,-15 -52,-15 -15,0 -27,2 -35,8 -7,5 -11,12 -11,21 0,7 2,12 6,16 5,4 10,7 17,9 6,2 15,4 27,6 14,3 25,5 34,8 8,3 16,7 22,14 6,7 9,16 9,27 0,16 -7,28 -20,37 -12,9 -30,14 -53,14zm190 0c-17,0 -33,-4 -47,-12 -13,-8 -24,-19 -32,-32 -8,-14 -12,-29 -12,-47 0,-17 4,-33 12,-46 8,-14 19,-25 32,-32 14,-8 30,-12 47,-12 17,0 32,4 46,12 14,7 24,18 32,32 8,13 12,29 12,46 0,18 -4,33 -12,47 -8,13 -18,24 -32,32 -14,8 -29,12 -46,12zm0 -22c12,0 24,-2 34,-8 10,-6 17,-14 23,-25 6,-10 8,-22 8,-36 0,-13 -2,-25 -8,-36 -6,-10 -13,-19 -23,-24 -10,-6 -22,-9 -34,-9 -13,0 -24,3 -34,9 -10,5 -18,14 -24,24 -6,11 -8,23 -8,36 0,14 2,26 8,36 6,11 14,19 24,25 10,6 21,8 34,8zm212 22c-17,0 -33,-4 -47,-12 -14,-7 -25,-18 -32,-32 -8,-14 -12,-29 -12,-47 0,-17 4,-33 12,-46 7,-14 18,-25 32,-32 14,-8 30,-12 47,-12 16,0 29,3 41,9 12,6 22,15 29,26l-18 12c-6,-8 -13,-15 -22,-19 -9,-5 -19,-7 -30,-7 -13,0 -24,3 -34,9 -11,5 -19,14 -24,24 -6,11 -9,23 -9,36 0,14 3,26 9,36 5,11 13,19 24,25 10,6 21,8 34,8 11,0 21,-2 30,-6 9,-4 16,-11 22,-20l18 13c-7,11 -17,20 -29,26 -12,6 -26,9 -41,9zm180 -91l-42 38 0 51 -24 0 0 -250 24 0 0 169 106 -97 30 0 -76 73 83 105 -30 0 -71 -89zm179 91c-14,0 -28,-2 -41,-7 -14,-4 -24,-9 -31,-15l11 -19c7,6 16,10 28,14 11,4 23,6 35,6 16,0 28,-3 36,-8 7,-5 11,-12 11,-21 0,-7 -2,-12 -6,-16 -4,-3 -10,-6 -16,-8 -7,-2 -16,-4 -26,-6 -15,-2 -26,-5 -35,-8 -9,-3 -16,-8 -23,-14 -6,-7 -9,-16 -9,-28 0,-15 6,-27 19,-37 12,-9 29,-14 51,-14 12,0 23,2 35,5 11,3 21,7 28,12l-10 19c-15,-10 -32,-15 -53,-15 -15,0 -26,2 -34,8 -8,5 -12,12 -12,21 0,7 2,12 7,16 4,4 10,7 16,9 7,2 16,4 27,6 14,3 26,5 34,8 9,3 16,7 22,14 6,7 9,16 9,27 0,16 -6,28 -19,37 -13,9 -31,14 -54,14z"/>
  </g>
 </g>
</svg>
