<?xml version="1.0" encoding="UTF-8"?>
<!DOCTYPE svg PUBLIC "-//W3C//DTD SVG 1.1//EN" "http://www.w3.org/Graphics/SVG/1.1/DTD/svg11.dtd">
<!-- Creator: CorelDRAW X7 -->
<svg xmlns="http://www.w3.org/2000/svg" xml:space="preserve" width="180px" height="50px" version="1.1" style="shape-rendering:geometricPrecision; text-rendering:geometricPrecision; image-rendering:optimizeQuality; fill-rule:evenodd; clip-rule:evenodd"
viewBox="0 0 13627 3790"
 xmlns:xlink="http://www.w3.org/1999/xlink">
 <defs>
  <style type="text/css">
   <![CDATA[
    .fil6 {fill:black}
    .fil4 {fill:#3F51B5}
    .fil3 {fill:#4CAF50}
    .fil0 {fill:#673AB7}
    .fil1 {fill:#CCCCCC}
    .fil5 {fill:#F44336}
    .fil2 {fill:#FF9800}
   ]]>
  </style>
 </defs>
 <g id="Layer_x0020_1">
  <metadata id="CorelCorpID_0Corel-Layer"/>
  <g id="_1525851424960">
   <g>
    <g id="_2641458305616">
     <path class="fil0" d="M586 0l2614 0c323,0 586,264 586,586l0 2618c0,322 -263,586 -586,586l-2614 0c-322,0 -586,-264 -586,-586l0 -2618c0,-322 264,-586 586,-586zm-12 170l2638 0c222,0 404,182 404,405l0 2640c0,222 -182,404 -404,404l-2638 0c-222,0 -404,-182 -404,-404l0 -2640c0,-223 182,-405 404,-405z"/>
     <polygon class="fil1" points="733,734 3053,734 3053,3055 733,3055 "/>
     <path class="fil2" d="M2724 2080c352,0 637,286 637,638 0,352 -285,637 -637,637 -353,0 -637,-286 -637,-637 0,-352 284,-638 637,-638z"/>
     <path class="fil3" d="M1063 2080c351,0 637,286 637,638 0,352 -286,637 -637,637 -352,0 -638,-286 -638,-637 0,-352 286,-638 638,-638z"/>
     <path class="fil4" d="M2724 434c352,0 637,285 637,638 0,351 -285,636 -637,636 -353,0 -637,-285 -637,-636 0,-353 284,-638 637,-638z"/>
     <path class="fil5" d="M1063 434c351,0 637,285 637,638 0,351 -286,636 -637,636 -352,0 -638,-285 -638,-636 0,-353 286,-638 638,-638z"/>
    </g>
   </g>
   <path class="fil6" d="M4367 2081l129 -12c6,52 21,95 43,129 23,33 58,60 105,81 47,21 100,31 159,31 53,0 99,-8 139,-23 41,-16 70,-38 90,-65 20,-27 29,-57 29,-89 0,-32 -9,-61 -28,-85 -19,-24 -50,-45 -94,-61 -27,-11 -89,-28 -185,-51 -95,-23 -162,-45 -200,-65 -50,-26 -87,-59 -111,-97 -25,-39 -37,-82 -37,-130 0,-52 15,-101 45,-147 30,-46 73,-80 131,-104 57,-24 120,-36 190,-36 77,0 145,13 204,38 59,24 104,61 136,109 32,48 49,103 51,164l-132 10c-7,-65 -31,-115 -72,-148 -41,-34 -101,-51 -181,-51 -84,0 -144,16 -182,46 -38,31 -57,67 -57,110 0,38 13,69 40,93 27,24 96,49 207,74 112,25 189,47 231,66 60,28 105,63 134,106 28,43 43,92 43,147 0,56 -16,108 -48,157 -32,48 -77,86 -136,114 -59,27 -126,40 -200,40 -94,0 -173,-14 -236,-41 -64,-27 -114,-68 -150,-124 -36,-55 -55,-117 -57,-186zm950 -43c0,-139 39,-243 117,-310 64,-55 143,-83 237,-83 103,0 188,34 254,102 65,67 98,161 98,280 0,97 -15,173 -44,228 -29,56 -71,99 -127,130 -55,30 -116,46 -181,46 -106,0 -191,-34 -256,-101 -65,-68 -98,-165 -98,-292zm131 0c0,96 21,169 63,216 42,48 95,72 160,72 63,0 116,-24 158,-72 42,-48 63,-121 63,-220 0,-93 -21,-163 -63,-211 -43,-48 -95,-72 -158,-72 -65,0 -118,24 -160,71 -42,48 -63,120 -63,216zm755 377l0 -655 -113 0 0 -99 113 0 0 -80c0,-51 5,-88 14,-113 12,-32 33,-59 64,-80 31,-20 74,-31 130,-31 36,0 76,5 119,13l-19 112c-26,-5 -51,-7 -75,-7 -39,0 -66,8 -82,25 -16,16 -24,47 -24,92l0 69 146 0 0 99 -145 0 0 655 -128 0zm651 -114l17 113c-36,7 -68,11 -96,11 -46,0 -82,-7 -108,-22 -25,-15 -43,-34 -53,-58 -11,-24 -16,-74 -16,-151l0 -434 -94 0 0 -99 94 0 0 -187 128 -76 0 263 128 0 0 99 -128 0 0 441c0,37 2,60 7,71 4,10 11,18 22,25 10,6 24,9 43,9 14,0 33,-2 56,-5zm145 114l0 -1040 751 0 0 122 -613 0 0 319 574 0 0 122 -574 0 0 355 638 0 0 122 -776 0zm1227 -114l18 113c-36,7 -68,11 -96,11 -47,0 -82,-7 -108,-22 -26,-15 -43,-34 -54,-58 -10,-24 -15,-74 -15,-151l0 -434 -95 0 0 -99 95 0 0 -187 127 -76 0 263 128 0 0 99 -128 0 0 441c0,37 3,60 7,71 5,10 12,18 22,25 10,6 25,9 44,9 14,0 32,-2 55,-5zm126 114l0 -1040 128 0 0 374c60,-69 134,-104 225,-104 55,0 104,11 145,33 41,22 70,52 88,91 17,39 26,95 26,169l0 477 -128 0 0 -477c0,-64 -14,-110 -41,-139 -28,-29 -66,-44 -117,-44 -37,0 -73,10 -106,30 -33,19 -56,46 -71,80 -14,33 -21,79 -21,138l0 412 -128 0zm1322 -244l133 17c-21,77 -59,137 -116,179 -56,42 -127,64 -215,64 -110,0 -197,-34 -261,-102 -65,-67 -97,-163 -97,-285 0,-126 33,-225 98,-294 65,-70 149,-105 253,-105 101,0 183,34 246,103 64,68 96,164 96,289 0,7 0,19 -1,34l-561 0c5,82 28,145 70,189 42,44 94,66 157,66 47,0 87,-12 120,-37 33,-25 59,-64 78,-118zm-418 -205l420 0c-6,-63 -22,-111 -48,-143 -41,-49 -93,-73 -158,-73 -59,0 -108,19 -148,58 -39,40 -61,92 -66,158zm711 449l0 -754 114 0 0 115c30,-53 57,-88 82,-105 25,-18 52,-26 82,-26 43,0 87,13 131,40l-45 118c-31,-17 -62,-26 -93,-26 -28,0 -53,9 -75,25 -22,17 -38,40 -47,70 -14,45 -22,95 -22,149l0 394 -127 0zm1201 0l-402 -1040 149 0 270 756c22,60 40,117 55,170 16,-57 34,-114 56,-170l280 -756 140 0 -405 1040 -143 0zm672 0l0 -1040 393 0c69,0 122,3 158,10 51,8 94,24 129,48 34,24 62,57 83,100 21,43 32,90 32,142 0,88 -28,163 -85,224 -56,61 -158,92 -305,92l-267 0 0 424 -138 0zm138 -546l269 0c89,0 152,-17 189,-50 38,-33 56,-80 56,-140 0,-43 -10,-81 -33,-112 -22,-31 -51,-51 -86,-61 -24,-6 -67,-9 -129,-9l-266 0 0 372zm830 546l0 -1040 141 0 546 816 0 -816 132 0 0 1040 -142 0 -545 -817 0 817 -132 0z"/>
  </g>
 </g>
</svg>
