<?xml version="1.0" encoding="UTF-8"?>
<!DOCTYPE svg PUBLIC "-//W3C//DTD SVG 1.1//EN" "http://www.w3.org/Graphics/SVG/1.1/DTD/svg11.dtd">
<!-- Creator: CorelDRAW X7 -->
<svg xmlns="http://www.w3.org/2000/svg" xml:space="preserve" width="106px" height="50px" version="1.1" style="shape-rendering:geometricPrecision; text-rendering:geometricPrecision; image-rendering:optimizeQuality; fill-rule:evenodd; clip-rule:evenodd"
viewBox="0 0 2333 1097"
 xmlns:xlink="http://www.w3.org/1999/xlink">
 <defs>
  <style type="text/css">
   <![CDATA[
    .fil1 {fill:#FEFEFE}
    .fil0 {fill:#332C2B}
   ]]>
  </style>
 </defs>
 <g id="Layer_x0020_1">
  <metadata id="CorelCorpID_0Corel-Layer"/>
  <g id="_1525851377952">
   <path class="fil0" d="M132 1097l833 0c72,0 132,-60 132,-132l0 -833c0,-73 -60,-132 -132,-132l-833 0c-73,0 -132,59 -132,132l0 833c0,72 59,132 132,132z"/>
   <g>
    <polygon class="fil1" points="508,590 77,787 77,677 385,554 385,552 77,420 77,310 508,515 "/>
    <polygon class="fil1" points="1019,787 556,787 556,722 1019,722 "/>
   </g>
   <path class="fil0" d="M1337 731l0 -88c16,13 33,23 52,30 19,7 38,10 57,10 11,0 21,-1 29,-3 9,-2 16,-5 21,-8 6,-4 10,-8 13,-13 3,-5 4,-10 4,-16 0,-8 -2,-15 -7,-21 -4,-6 -10,-11 -18,-16 -7,-6 -16,-11 -27,-15 -10,-5 -22,-10 -34,-15 -31,-13 -54,-29 -69,-47 -15,-19 -23,-42 -23,-68 0,-21 4,-38 12,-53 9,-15 20,-27 34,-37 15,-9 31,-17 50,-21 19,-5 39,-7 60,-7 21,0 39,2 55,4 16,2 30,6 44,11l0 83c-7,-5 -14,-8 -22,-12 -8,-3 -16,-6 -24,-9 -8,-2 -17,-4 -25,-5 -8,-1 -16,-2 -23,-2 -10,0 -20,2 -28,3 -8,2 -15,5 -21,9 -6,3 -10,7 -13,12 -3,5 -5,10 -5,17 0,6 2,12 5,17 4,6 9,11 15,15 7,5 14,10 24,14 9,5 19,9 31,14 16,7 30,14 43,21 12,8 23,16 32,26 9,9 16,20 21,32 5,12 7,26 7,42 0,22 -4,41 -12,56 -9,15 -20,27 -35,36 -14,10 -31,16 -50,20 -19,4 -39,6 -60,6 -22,0 -43,-1 -62,-5 -20,-4 -37,-9 -51,-17l0 0zm317 0l0 -88c16,13 34,23 53,30 18,7 37,10 57,10 11,0 21,-1 29,-3 8,-2 15,-5 21,-8 6,-4 10,-8 12,-13 3,-5 5,-10 5,-16 0,-8 -3,-15 -7,-21 -4,-6 -10,-11 -18,-16 -8,-6 -17,-11 -27,-15 -11,-5 -22,-10 -34,-15 -31,-13 -55,-29 -70,-47 -15,-19 -22,-42 -22,-68 0,-21 4,-38 12,-53 8,-15 20,-27 34,-37 14,-9 31,-17 50,-21 18,-5 38,-7 59,-7 21,0 39,2 55,4 16,2 31,6 44,11l0 83c-6,-5 -14,-8 -21,-12 -8,-3 -16,-6 -25,-9 -8,-2 -16,-4 -24,-5 -9,-1 -16,-2 -24,-2 -10,0 -19,2 -27,3 -9,2 -16,5 -21,9 -6,3 -10,7 -14,12 -3,5 -4,10 -4,17 0,6 1,12 5,17 3,6 8,11 15,15 6,5 14,10 23,14 9,5 20,9 32,14 15,7 30,14 42,21 13,8 24,16 33,26 9,9 16,20 20,32 5,12 8,26 8,42 0,22 -4,41 -13,56 -8,15 -20,27 -34,36 -14,10 -31,16 -50,20 -19,4 -39,6 -61,6 -21,0 -42,-1 -62,-5 -19,-4 -36,-9 -51,-17l0 0zm679 16l-89 0 0 -162 -165 0 0 162 -89 0 0 -397 89 0 0 158 165 0 0 -158 89 0 0 397z"/>
  </g>
 </g>
</svg>
