<svg xmlns="http://www.w3.org/2000/svg" xmlns:xlink="http://www.w3.org/1999/xlink" width="500" zoomAndPan="magnify" viewBox="0 0 375 112.499997" height="150" preserveAspectRatio="xMidYMid meet" version="1.0"><defs><g/><clipPath id="fd194ba570"><path d="M 18.050781 0 L 130 0 L 130 112 L 18.050781 112 Z M 18.050781 0 " clip-rule="nonzero"/></clipPath></defs><g clip-path="url(#fd194ba570)"><path fill="#fabc3d" d="M 129.570312 56 C 129.570312 57.832031 129.480469 59.65625 129.300781 61.480469 C 129.121094 63.300781 128.855469 65.109375 128.5 66.90625 C 128.140625 68.703125 127.699219 70.476562 127.167969 72.226562 C 126.640625 73.980469 126.023438 75.699219 125.324219 77.390625 C 124.625 79.082031 123.847656 80.738281 122.984375 82.351562 C 122.125 83.964844 121.1875 85.535156 120.171875 87.058594 C 119.160156 88.578125 118.070312 90.046875 116.914062 91.460938 C 115.753906 92.878906 114.53125 94.234375 113.238281 95.527344 C 111.945312 96.820312 110.59375 98.050781 109.183594 99.210938 C 107.773438 100.371094 106.308594 101.460938 104.789062 102.480469 C 103.269531 103.496094 101.707031 104.4375 100.09375 105.300781 C 98.484375 106.164062 96.835938 106.945312 95.148438 107.644531 C 93.460938 108.34375 91.742188 108.960938 89.996094 109.492188 C 88.25 110.023438 86.480469 110.46875 84.6875 110.824219 C 82.898438 111.183594 81.09375 111.449219 79.277344 111.628906 C 77.457031 111.808594 75.636719 111.898438 73.808594 111.898438 C 71.984375 111.898438 70.164062 111.808594 68.34375 111.628906 C 66.527344 111.449219 64.722656 111.183594 62.933594 110.824219 C 61.140625 110.46875 59.371094 110.023438 57.625 109.492188 C 55.875 108.960938 54.160156 108.34375 52.472656 107.644531 C 50.785156 106.945312 49.136719 106.164062 47.523438 105.300781 C 45.914062 104.4375 44.351562 103.496094 42.832031 102.480469 C 41.3125 101.460938 39.847656 100.371094 38.4375 99.210938 C 37.023438 98.050781 35.671875 96.820312 34.382812 95.527344 C 33.089844 94.234375 31.867188 92.878906 30.707031 91.460938 C 29.546875 90.046875 28.460938 88.578125 27.449219 87.058594 C 26.433594 85.535156 25.496094 83.964844 24.632812 82.351562 C 23.773438 80.738281 22.992188 79.082031 22.292969 77.390625 C 21.59375 75.699219 20.980469 73.980469 20.449219 72.226562 C 19.921875 70.476562 19.476562 68.703125 19.121094 66.90625 C 18.765625 65.109375 18.496094 63.300781 18.320312 61.480469 C 18.140625 59.65625 18.050781 57.832031 18.050781 56 C 18.050781 54.171875 18.140625 52.34375 18.320312 50.523438 C 18.496094 48.699219 18.765625 46.890625 19.121094 45.097656 C 19.476562 43.300781 19.921875 41.527344 20.449219 39.773438 C 20.980469 38.023438 21.59375 36.300781 22.292969 34.609375 C 22.992188 32.917969 23.773438 31.265625 24.632812 29.652344 C 25.496094 28.035156 26.433594 26.46875 27.449219 24.945312 C 28.460938 23.421875 29.546875 21.953125 30.707031 20.539062 C 31.867188 19.125 33.089844 17.769531 34.382812 16.476562 C 35.671875 15.179688 37.023438 13.953125 38.4375 12.789062 C 39.847656 11.628906 41.3125 10.539062 42.832031 9.523438 C 44.351562 8.507812 45.914062 7.566406 47.523438 6.703125 C 49.136719 5.839844 50.785156 5.058594 52.472656 4.359375 C 54.160156 3.65625 55.875 3.039062 57.625 2.507812 C 59.371094 1.976562 61.140625 1.535156 62.933594 1.175781 C 64.722656 0.820312 66.527344 0.550781 68.34375 0.371094 C 70.164062 0.191406 71.984375 0.101562 73.808594 0.101562 C 75.636719 0.101562 77.457031 0.191406 79.277344 0.371094 C 81.09375 0.550781 82.898438 0.820312 84.6875 1.175781 C 86.480469 1.535156 88.25 1.976562 89.996094 2.507812 C 91.742188 3.039062 93.460938 3.65625 95.148438 4.359375 C 96.835938 5.058594 98.484375 5.839844 100.09375 6.703125 C 101.707031 7.566406 103.269531 8.507812 104.789062 9.523438 C 106.308594 10.539062 107.773438 11.628906 109.183594 12.789062 C 110.59375 13.953125 111.945312 15.179688 113.238281 16.476562 C 114.53125 17.769531 115.753906 19.125 116.914062 20.539062 C 118.070312 21.953125 119.160156 23.421875 120.171875 24.945312 C 121.1875 26.46875 122.125 28.035156 122.984375 29.652344 C 123.847656 31.265625 124.625 32.917969 125.324219 34.609375 C 126.023438 36.300781 126.640625 38.023438 127.167969 39.773438 C 127.699219 41.527344 128.140625 43.300781 128.5 45.097656 C 128.855469 46.890625 129.121094 48.699219 129.300781 50.523438 C 129.480469 52.34375 129.570312 54.171875 129.570312 56 Z M 129.570312 56 " fill-opacity="1" fill-rule="nonzero"/></g><path fill="#ffffff" d="M 43.839844 50.535156 C 45.515625 51.988281 48.039062 51.8125 49.507812 50.15625 C 53.808594 45.339844 57.589844 46.855469 57.589844 46.855469 C 57.589844 46.855469 55.5625 50.917969 56.574219 59.050781 C 49.808594 62.441406 47.984375 72.195312 47.5625 75.335938 C 48.941406 76.757812 51 78.019531 53.566406 79.070312 C 54.234375 66.039062 64.6875 64.132812 64.6875 64.132812 C 67.726562 66.164062 77.867188 66.164062 81.921875 64.132812 C 84.960938 71.246094 90.34375 69.375 94.085938 71.246094 C 97.105469 72.757812 97.316406 75.960938 97.222656 77.5 C 98.742188 76.59375 99.960938 75.589844 100.777344 74.5 C 101.140625 74.011719 101.621094 73.671875 102.148438 73.476562 C 101.839844 70.40625 99.910156 65.992188 97.128906 64.132812 C 101.832031 53.125 97.109375 48.613281 90.03125 47.085938 C 84.953125 46 78.675781 46.457031 73.800781 47.167969 C 72.289062 47.394531 70.910156 47.636719 69.753906 47.871094 C 69.753906 36.933594 63.9375 31.621094 56.078125 31.621094 C 52.519531 31.621094 49.574219 33.851562 47.339844 36.4375 C 44.792969 39.363281 42.917969 42.992188 42.402344 45.410156 C 42.046875 47.128906 42.058594 48.886719 43.335938 50.074219 C 43.488281 50.226562 43.660156 50.378906 43.839844 50.535156 Z M 43.839844 50.535156 " fill-opacity="1" fill-rule="nonzero"/><path fill="#84462d" d="M 73.800781 47.167969 C 72.289062 47.394531 70.910156 47.636719 69.753906 47.871094 C 69.753906 36.933594 63.9375 31.621094 56.078125 31.621094 C 52.519531 31.621094 49.578125 33.851562 47.339844 36.4375 C 47.25 33.703125 48.121094 27.542969 57.589844 27.542969 C 69.359375 27.542969 73.535156 39.921875 73.800781 47.167969 Z M 73.800781 47.167969 " fill-opacity="1" fill-rule="nonzero"/><path fill="#84462d" d="M 92.480469 47.78125 C 97.371094 49.539062 100.378906 53.289062 98.375 60.589844 C 101.042969 64.695312 104.035156 68.195312 106.253906 68.195312 C 106.253906 48.1875 101.339844 45.910156 92.480469 47.78125 Z M 92.480469 47.78125 " fill-opacity="1" fill-rule="nonzero"/><path fill="#df2c2c" d="M 90.03125 47.085938 L 90.03125 56 C 90.03125 58.246094 88.214844 60.066406 85.976562 60.066406 L 73.808594 60.066406 C 71.570312 60.066406 69.753906 58.246094 69.753906 56 L 69.753906 47.871094 C 74.660156 46.882812 83.378906 45.664062 90.03125 47.085938 Z M 90.03125 47.085938 " fill-opacity="1" fill-rule="nonzero"/><path fill="#9c6144" d="M 53.535156 38.722656 C 53.535156 38.992188 53.480469 39.253906 53.378906 39.5 C 53.277344 39.75 53.128906 39.96875 52.941406 40.160156 C 52.75 40.351562 52.53125 40.5 52.28125 40.601562 C 52.035156 40.703125 51.773438 40.757812 51.507812 40.757812 C 51.238281 40.757812 50.980469 40.703125 50.730469 40.601562 C 50.480469 40.5 50.261719 40.351562 50.074219 40.160156 C 49.882812 39.96875 49.734375 39.75 49.632812 39.5 C 49.53125 39.253906 49.476562 38.992188 49.476562 38.722656 C 49.476562 38.453125 49.53125 38.195312 49.632812 37.945312 C 49.734375 37.695312 49.882812 37.476562 50.074219 37.285156 C 50.261719 37.09375 50.480469 36.949219 50.730469 36.84375 C 50.980469 36.742188 51.238281 36.691406 51.507812 36.691406 C 51.773438 36.691406 52.035156 36.742188 52.28125 36.84375 C 52.53125 36.949219 52.75 37.09375 52.941406 37.285156 C 53.128906 37.476562 53.277344 37.695312 53.378906 37.945312 C 53.480469 38.195312 53.535156 38.453125 53.535156 38.722656 Z M 53.535156 38.722656 " fill-opacity="1" fill-rule="nonzero"/><path fill="#9c6144" d="M 73.808594 88.523438 C 62.171875 88.523438 47.695312 85.800781 41.976562 78.15625 C 40.96875 76.8125 41.242188 74.898438 42.585938 73.886719 C 43.929688 72.878906 45.835938 73.152344 46.84375 74.5 C 50.390625 79.238281 61.226562 82.425781 73.808594 82.425781 C 86.394531 82.425781 97.230469 79.238281 100.777344 74.5 C 101.785156 73.152344 103.695312 72.878906 105.035156 73.886719 C 106.378906 74.898438 106.652344 76.8125 105.644531 78.15625 C 99.925781 85.800781 85.449219 88.523438 73.808594 88.523438 Z M 73.808594 88.523438 " fill-opacity="1" fill-rule="nonzero"/><path fill="#9c6144" d="M 57.589844 27.542969 C 48.121094 27.542969 47.25 33.703125 47.339844 36.4375 C 49.578125 33.851562 52.519531 31.621094 56.078125 31.621094 C 62.96875 31.621094 68.285156 35.703125 69.496094 44.078125 L 72.742188 40.820312 C 70.863281 34.347656 66.316406 27.542969 57.589844 27.542969 Z M 57.589844 27.542969 " fill-opacity="1" fill-rule="nonzero"/><path fill="#fa5655" d="M 69.753906 47.871094 L 69.753906 56 C 69.753906 57.125 70.210938 58.144531 70.949219 58.878906 L 83.359375 46.4375 C 78.296875 46.40625 73.125 47.191406 69.753906 47.871094 Z M 69.753906 47.871094 " fill-opacity="1" fill-rule="nonzero"/><g fill="#fabc3d" fill-opacity="1"><g transform="translate(146.298427, 80.378094)"><g><path d="M 24.21875 0 L 14.1875 0 L 14.1875 -39 L 1.328125 -39 L 1.328125 -47.34375 L 37.078125 -47.34375 L 37.078125 -39 L 24.21875 -39 Z M 24.21875 0 "/></g></g></g><g fill="#fabc3d" fill-opacity="1"><g transform="translate(184.694692, 80.378094)"><g><path d="M 25.390625 -36.890625 C 26.734375 -36.890625 27.847656 -36.789062 28.734375 -36.59375 L 27.984375 -27.328125 C 27.179688 -27.546875 26.207031 -27.65625 25.0625 -27.65625 C 21.914062 -27.65625 19.460938 -26.84375 17.703125 -25.21875 C 15.941406 -23.601562 15.0625 -21.335938 15.0625 -18.421875 L 15.0625 0 L 5.1875 0 L 5.1875 -36.203125 L 12.65625 -36.203125 L 14.125 -30.125 L 14.609375 -30.125 C 15.734375 -32.15625 17.25 -33.789062 19.15625 -35.03125 C 21.0625 -36.269531 23.140625 -36.890625 25.390625 -36.890625 Z M 25.390625 -36.890625 "/></g></g></g><g fill="#fabc3d" fill-opacity="1"><g transform="translate(214.803063, 80.378094)"><g><path d="M 13.046875 -18.171875 C 13.046875 -14.585938 13.632812 -11.875 14.8125 -10.03125 C 15.988281 -8.195312 17.90625 -7.28125 20.5625 -7.28125 C 23.195312 -7.28125 25.09375 -8.191406 26.25 -10.015625 C 27.40625 -11.847656 27.984375 -14.566406 27.984375 -18.171875 C 27.984375 -21.753906 27.398438 -24.441406 26.234375 -26.234375 C 25.066406 -28.023438 23.15625 -28.921875 20.5 -28.921875 C 17.863281 -28.921875 15.960938 -28.03125 14.796875 -26.25 C 13.628906 -24.46875 13.046875 -21.773438 13.046875 -18.171875 Z M 38.09375 -18.171875 C 38.09375 -12.273438 36.535156 -7.664062 33.421875 -4.34375 C 30.316406 -1.019531 25.988281 0.640625 20.4375 0.640625 C 16.957031 0.640625 13.890625 -0.117188 11.234375 -1.640625 C 8.578125 -3.160156 6.535156 -5.34375 5.109375 -8.1875 C 3.691406 -11.039062 2.984375 -14.367188 2.984375 -18.171875 C 2.984375 -24.085938 4.523438 -28.6875 7.609375 -31.96875 C 10.703125 -35.25 15.039062 -36.890625 20.625 -36.890625 C 24.101562 -36.890625 27.171875 -36.132812 29.828125 -34.625 C 32.484375 -33.113281 34.523438 -30.941406 35.953125 -28.109375 C 37.378906 -25.285156 38.09375 -21.972656 38.09375 -18.171875 Z M 38.09375 -18.171875 "/></g></g></g><g fill="#fabc3d" fill-opacity="1"><g transform="translate(255.854045, 80.378094)"><g><path d="M 2.265625 15.9375 C -0.253906 15.9375 -2.425781 15.664062 -4.25 15.125 L -4.25 7.359375 C -2.726562 7.765625 -1.179688 7.96875 0.390625 7.96875 C 2.046875 7.96875 3.257812 7.503906 4.03125 6.578125 C 4.800781 5.648438 5.1875 4.28125 5.1875 2.46875 L 5.1875 -36.203125 L 15.0625 -36.203125 L 15.0625 3.921875 C 15.0625 7.765625 13.945312 10.726562 11.71875 12.8125 C 9.5 14.894531 6.347656 15.9375 2.265625 15.9375 Z M 4.765625 -45.5625 C 4.765625 -48.78125 6.554688 -50.390625 10.140625 -50.390625 C 13.722656 -50.390625 15.515625 -48.78125 15.515625 -45.5625 C 15.515625 -44.03125 15.066406 -42.835938 14.171875 -41.984375 C 13.273438 -41.128906 11.929688 -40.703125 10.140625 -40.703125 C 6.554688 -40.703125 4.765625 -42.320312 4.765625 -45.5625 Z M 4.765625 -45.5625 "/></g></g></g><g fill="#fabc3d" fill-opacity="1"><g transform="translate(276.088165, 80.378094)"><g><path d="M 28.171875 0 L 26.265625 -4.921875 L 26 -4.921875 C 24.34375 -2.828125 22.632812 -1.375 20.875 -0.5625 C 19.113281 0.238281 16.816406 0.640625 13.984375 0.640625 C 10.515625 0.640625 7.78125 -0.347656 5.78125 -2.328125 C 3.78125 -4.316406 2.78125 -7.144531 2.78125 -10.8125 C 2.78125 -14.65625 4.125 -17.488281 6.8125 -19.3125 C 9.5 -21.144531 13.554688 -22.15625 18.984375 -22.34375 L 25.265625 -22.546875 L 25.265625 -24.125 C 25.265625 -27.800781 23.382812 -29.640625 19.625 -29.640625 C 16.726562 -29.640625 13.328125 -28.765625 9.421875 -27.015625 L 6.15625 -33.6875 C 10.320312 -35.863281 14.941406 -36.953125 20.015625 -36.953125 C 24.867188 -36.953125 28.59375 -35.894531 31.1875 -33.78125 C 33.78125 -31.664062 35.078125 -28.445312 35.078125 -24.125 L 35.078125 0 Z M 25.265625 -16.78125 L 21.4375 -16.640625 C 18.5625 -16.554688 16.421875 -16.039062 15.015625 -15.09375 C 13.617188 -14.144531 12.921875 -12.695312 12.921875 -10.75 C 12.921875 -7.96875 14.519531 -6.578125 17.71875 -6.578125 C 20.007812 -6.578125 21.835938 -7.234375 23.203125 -8.546875 C 24.578125 -9.867188 25.265625 -11.617188 25.265625 -13.796875 Z M 25.265625 -16.78125 "/></g></g></g><g fill="#fabc3d" fill-opacity="1"><g transform="translate(316.135535, 80.378094)"><g><path d="M 38.609375 0 L 28.734375 0 L 28.734375 -21.15625 C 28.734375 -23.757812 28.265625 -25.710938 27.328125 -27.015625 C 26.398438 -28.328125 24.921875 -28.984375 22.890625 -28.984375 C 20.128906 -28.984375 18.132812 -28.0625 16.90625 -26.21875 C 15.675781 -24.375 15.0625 -21.3125 15.0625 -17.03125 L 15.0625 0 L 5.1875 0 L 5.1875 -36.203125 L 12.734375 -36.203125 L 14.0625 -31.578125 L 14.609375 -31.578125 C 15.710938 -33.328125 17.226562 -34.648438 19.15625 -35.546875 C 21.09375 -36.441406 23.289062 -36.890625 25.75 -36.890625 C 29.957031 -36.890625 33.148438 -35.75 35.328125 -33.46875 C 37.515625 -31.195312 38.609375 -27.910156 38.609375 -23.609375 Z M 38.609375 0 "/></g></g></g></svg>