<?xml version="1.0" encoding="UTF-8"?>
<!DOCTYPE svg PUBLIC "-//W3C//DTD SVG 1.1//EN" "http://www.w3.org/Graphics/SVG/1.1/DTD/svg11.dtd">
<!-- Creator: CorelDRAW X7 -->
<svg xmlns="http://www.w3.org/2000/svg" xml:space="preserve" width="184px" height="50px" version="1.1" style="shape-rendering:geometricPrecision; text-rendering:geometricPrecision; image-rendering:optimizeQuality; fill-rule:evenodd; clip-rule:evenodd"
viewBox="0 0 20667 5613"
 xmlns:xlink="http://www.w3.org/1999/xlink">
 <defs>
  <style type="text/css">
   <![CDATA[
    .fil0 {fill:#8B2D30}
    .fil1 {fill:#FEFEFE}
   ]]>
  </style>
 </defs>
 <g id="Layer_x0020_1">
  <metadata id="CorelCorpID_0Corel-Layer"/>
  <g id="_1525859095312">
   <g>
    <path class="fil0" d="M2801 0c1991,-11 2799,1289 2799,2844 0,1555 -885,2773 -2797,2769 -1912,-3 -2803,-1210 -2803,-2765 0,-1555 810,-2837 2801,-2848z"/>
    <path class="fil1" d="M2528 156c12,12 34,13 51,18l337 78c16,4 46,5 55,18 0,15 1,17 -14,21 -31,9 -94,3 -128,3 -29,0 -78,-10 -108,-15 -105,-15 -224,-53 -319,-60 5,16 -2,3 8,13 17,15 68,39 88,49 108,53 214,101 329,141 -7,13 -7,10 -18,19 -8,5 -14,10 -22,15 -52,33 -98,49 -165,52 -85,5 -167,-33 -258,-33l-53 0c-61,0 -183,32 -209,66 10,13 78,44 100,55 35,16 75,37 103,57 37,28 46,43 55,102 25,166 34,129 -39,151 -77,24 -286,131 -289,192 25,15 305,16 413,52 47,16 70,29 106,49 -6,19 -32,28 -49,36l-143 75c-14,8 -19,9 -23,26 89,15 190,0 280,0 36,0 80,41 106,63l197 154c17,13 33,26 49,39 83,65 165,127 244,195 67,58 153,151 210,224 172,219 164,493 15,724 -46,73 -99,128 -159,191 -42,43 -94,84 -146,114 -112,62 -165,95 -303,135 -93,27 -189,41 -276,75 -87,34 -159,75 -229,122 -33,22 -71,49 -99,76 -61,58 -116,112 -170,181 -14,17 -23,32 -37,51 -36,52 -71,110 -95,168 -42,98 -62,162 -85,266 -26,122 -28,257 -6,379 24,128 42,194 94,314 13,31 32,59 46,88 14,29 36,57 54,83 107,161 260,289 443,377 110,54 288,114 433,114l130 0c210,0 462,-110 619,-229 30,-23 51,-41 78,-63 115,-93 231,-262 295,-414 52,-127 95,-322 85,-480 -23,-357 -150,-595 -345,-787 -123,-122 -87,-87 -350,66 -115,67 -229,129 -353,178 -13,5 -18,5 -21,16 6,4 82,25 96,29 150,50 274,154 343,297 83,171 60,410 -50,562 -60,82 -124,139 -222,187 -218,106 -462,54 -631,-102 -89,-82 -175,-229 -175,-356 0,-101 1,-178 45,-276 21,-49 57,-108 88,-142 19,-21 36,-38 56,-57 71,-65 215,-120 305,-157 81,-33 162,-74 241,-106 242,-96 381,-167 567,-356 153,-154 282,-374 339,-584 8,-32 17,-56 24,-90 6,-31 13,-63 20,-95 37,-168 28,-370 -26,-530 -33,-98 -83,-186 -147,-264 -12,-15 -26,-32 -39,-46l-103 -99c-8,-8 -13,-10 -23,-19 -100,-95 -305,-228 -424,-319 -71,-55 -122,-85 -159,-174 -10,-26 -11,-42 1,-67 11,-28 16,-28 50,-35 169,-32 361,-29 533,-21 23,1 51,-4 70,7 35,22 65,67 148,-24 21,-23 51,-63 64,-88 -40,-26 -267,-14 -339,-17 -50,-3 -60,1 -89,-29 4,-5 1,-2 8,-8 34,-22 85,-12 122,-12l374 0c71,0 114,15 41,-102 -16,-27 -42,-56 -65,-76 -12,-10 -108,-89 -131,-75 -13,8 2,14 -8,26l-5 3c-2,1 -7,2 -10,2 -101,13 -276,-16 -326,-81l-83 -97c-43,-47 -306,-155 -370,-175 -147,-46 -269,-49 -424,-49 -33,0 -178,4 -199,15l1 0zm993 428c-6,-13 -37,-41 -49,-45 -27,-9 -58,12 -62,30 -4,22 21,45 44,43 18,-1 48,-22 67,-28l0 0zm-1022 2617c-132,-26 -212,-44 -327,-119 -33,-23 -92,-78 -113,-112 -34,-55 -48,-90 -62,-162 -25,-123 13,-280 70,-364 34,-51 62,-81 107,-118 33,-27 98,-63 146,-79 119,-41 268,-27 371,26 216,111 327,362 243,599 -23,66 -46,100 -80,146l-79 88c-10,8 -23,13 -29,28 46,4 217,-68 272,-94 237,-112 439,-373 463,-642 14,-155 -64,-287 -155,-397 -126,-153 -285,-252 -475,-319 -33,-12 -64,-18 -99,-26 -201,-52 -442,-32 -639,41 -61,23 -115,50 -168,80 -25,14 -51,31 -75,47l-136 108c-24,26 -43,41 -60,62 -70,84 -153,199 -191,301 -49,135 -81,251 -81,412 0,196 58,414 162,574l77 107c42,50 42,48 91,96 22,22 41,37 64,58 20,19 47,33 71,51 15,12 59,41 83,43 39,3 68,-49 96,-84 9,-12 18,-21 28,-33 75,-96 235,-211 347,-267 12,-7 26,-14 40,-21 15,-9 33,-11 38,-30l0 0zm-1375 1134c25,3 126,-36 152,-46 74,-29 237,-69 318,-82 215,-37 166,-6 181,-102 9,-63 28,-134 48,-192 13,-37 34,-77 50,-111 12,-23 56,-85 59,-99 -32,-15 -128,0 -165,5 -94,14 -178,61 -259,103l-106 77c-107,89 -249,249 -278,447l0 0z"/>
   </g>
   <path class="fil0" d="M8988 1964l-559 1685 -332 0 -417 -1247 -424 1247 -334 0 -559 -1685 325 0 419 1281 436 -1281 289 0 426 1288 431 -1288 299 0zm4970 823l296 0 0 672c-86,69 -187,122 -303,159 -116,37 -234,56 -356,56 -172,0 -327,-38 -465,-112 -138,-75 -247,-178 -325,-310 -79,-131 -118,-280 -118,-445 0,-166 39,-314 118,-446 78,-131 187,-235 326,-309 139,-75 295,-112 468,-112 142,0 270,23 386,70 115,46 212,114 291,204l-197 193c-129,-128 -284,-193 -465,-193 -119,0 -225,25 -317,75 -92,50 -164,120 -217,209 -52,90 -78,193 -78,309 0,112 26,213 78,303 53,90 125,161 217,212 92,51 197,77 314,77 132,0 248,-29 347,-87l0 -525zm-4713 -573l267 0 0 1435 -267 0 0 -1435zm1594 1435l-293 -420c-12,1 -31,2 -55,2l-324 0 0 418 -267 0 0 -1435 591 0c124,0 232,20 325,61 92,41 163,100 212,177 49,76 74,167 74,272 0,108 -26,201 -79,279 -53,78 -128,136 -227,175l330 471 -287 0zm-6 -925c0,-91 -30,-162 -90,-211 -60,-49 -148,-74 -265,-74l-311 0 0 573 311 0c117,0 205,-25 265,-75 60,-50 90,-121 90,-213zm1643 702l0 223 -1077 0 0 -1435 1048 0 0 223 -781 0 0 374 693 0 0 219 -693 0 0 396 810 0zm2774 244c-198,0 -353,-56 -464,-167 -110,-112 -166,-271 -166,-479l0 -810 267 0 0 800c0,281 122,422 365,422 242,0 363,-141 363,-422l0 -800 263 0 0 810c0,208 -55,367 -166,479 -110,111 -264,167 -462,167zm1901 -353l-717 0 -142 332 -275 0 646 -1435 263 0 648 1435 -279 0 -144 -332zm-88 -209l-270 -628 -269 628 539 0zm1633 541l-293 -420c-13,1 -31,2 -56,2l-324 0 0 418 -266 0 0 -1435 590 0c125,0 233,20 325,61 93,41 164,100 213,177 49,76 74,167 74,272 0,108 -27,201 -79,279 -53,78 -129,136 -227,175l330 471 -287 0zm-6 -925c0,-91 -30,-162 -90,-211 -61,-49 -149,-74 -265,-74l-312 0 0 573 312 0c116,0 204,-25 265,-75 60,-50 90,-121 90,-213zm566 -510l628 0c153,0 289,29 408,89 119,59 211,143 277,252 65,109 98,234 98,377 0,142 -33,267 -98,376 -66,109 -158,193 -277,252 -119,60 -255,89 -408,89l-628 0 0 -1435zm615 1210c106,0 198,-20 278,-61 80,-40 142,-97 185,-172 43,-75 65,-161 65,-259 0,-99 -22,-185 -65,-260 -43,-74 -105,-132 -185,-172 -80,-41 -172,-61 -278,-61l-348 0 0 985 348 0z"/>
  </g>
 </g>
</svg>
