<svg xmlns="http://www.w3.org/2000/svg" xmlns:xlink="http://www.w3.org/1999/xlink" width="256" zoomAndPan="magnify" viewBox="0 0 192 74.999997" height="100" preserveAspectRatio="xMidYMid meet" version="1.0"><defs><g/><clipPath id="bd976887b9"><path d="M 7.625 1 L 81 1 L 81 74 L 7.625 74 Z M 7.625 1 " clip-rule="nonzero"/></clipPath></defs><g clip-path="url(#bd976887b9)"><path fill="#000000" d="M 46.378906 9.164062 L 55.171875 26.863281 L 80.816406 35.523438 L 46.378906 35.523438 Z M 42.367188 35.523438 L 16.003906 35.523438 L 33.707031 26.730469 L 42.367188 1.085938 Z M 72.742188 39.539062 L 55.039062 48.332031 L 46.378906 73.976562 L 46.378906 39.539062 Z M 42.367188 65.898438 L 33.574219 48.199219 L 7.929688 39.539062 L 42.367188 39.539062 Z M 42.367188 65.898438 " fill-opacity="1" fill-rule="evenodd"/></g><g fill="#000000" fill-opacity="1"><g transform="translate(84.845193, 49.994782)"><g><path d="M 29.609375 0 L 21.9375 0 L 14.5625 -11.984375 L 7.203125 0 L 0 0 L 10.515625 -16.34375 L 0.671875 -31.6875 L 8.078125 -31.6875 L 14.90625 -20.28125 L 21.609375 -31.6875 L 28.84375 -31.6875 L 18.90625 -15.96875 Z M 29.609375 0 "/></g></g></g><g fill="#000000" fill-opacity="1"><g transform="translate(114.447986, 49.994782)"><g><path d="M 17 -24.6875 C 17.894531 -24.6875 18.632812 -24.625 19.21875 -24.5 L 18.734375 -18.296875 C 18.191406 -18.441406 17.539062 -18.515625 16.78125 -18.515625 C 14.664062 -18.515625 13.019531 -17.972656 11.84375 -16.890625 C 10.664062 -15.804688 10.078125 -14.285156 10.078125 -12.328125 L 10.078125 0 L 3.46875 0 L 3.46875 -24.234375 L 8.46875 -24.234375 L 9.453125 -20.15625 L 9.78125 -20.15625 C 10.53125 -21.519531 11.539062 -22.613281 12.8125 -23.4375 C 14.09375 -24.269531 15.488281 -24.6875 17 -24.6875 Z M 17 -24.6875 "/></g></g></g><g fill="#000000" fill-opacity="1"><g transform="translate(134.602158, 49.994782)"><g><path d="M 18.859375 0 L 17.578125 -3.296875 L 17.40625 -3.296875 C 16.289062 -1.890625 15.144531 -0.914062 13.96875 -0.375 C 12.789062 0.164062 11.253906 0.4375 9.359375 0.4375 C 7.035156 0.4375 5.203125 -0.226562 3.859375 -1.5625 C 2.523438 -2.894531 1.859375 -4.785156 1.859375 -7.234375 C 1.859375 -9.804688 2.757812 -11.703125 4.5625 -12.921875 C 6.363281 -14.148438 9.078125 -14.828125 12.703125 -14.953125 L 16.90625 -15.078125 L 16.90625 -16.140625 C 16.90625 -18.597656 15.648438 -19.828125 13.140625 -19.828125 C 11.203125 -19.828125 8.925781 -19.242188 6.3125 -18.078125 L 4.125 -22.546875 C 6.90625 -24.003906 9.992188 -24.734375 13.390625 -24.734375 C 16.640625 -24.734375 19.128906 -24.023438 20.859375 -22.609375 C 22.597656 -21.191406 23.46875 -19.035156 23.46875 -16.140625 L 23.46875 0 Z M 16.90625 -11.234375 L 14.34375 -11.140625 C 12.425781 -11.078125 10.992188 -10.726562 10.046875 -10.09375 C 9.109375 -9.457031 8.640625 -8.492188 8.640625 -7.203125 C 8.640625 -5.335938 9.710938 -4.40625 11.859375 -4.40625 C 13.390625 -4.40625 14.613281 -4.84375 15.53125 -5.71875 C 16.445312 -6.601562 16.90625 -7.773438 16.90625 -9.234375 Z M 16.90625 -11.234375 "/></g></g></g><g fill="#000000" fill-opacity="1"><g transform="translate(161.409437, 49.994782)"><g><path d="M 0 -24.234375 L 7.234375 -24.234375 L 11.8125 -10.59375 C 12.195312 -9.414062 12.460938 -8.015625 12.609375 -6.390625 L 12.75 -6.390625 C 12.90625 -7.878906 13.210938 -9.28125 13.671875 -10.59375 L 18.15625 -24.234375 L 25.25 -24.234375 L 15 3.09375 C 14.0625 5.625 12.71875 7.519531 10.96875 8.78125 C 9.226562 10.039062 7.195312 10.671875 4.875 10.671875 C 3.738281 10.671875 2.617188 10.546875 1.515625 10.296875 L 1.515625 5.046875 C 2.304688 5.234375 3.175781 5.328125 4.125 5.328125 C 5.289062 5.328125 6.3125 4.96875 7.1875 4.25 C 8.0625 3.539062 8.742188 2.460938 9.234375 1.015625 L 9.625 -0.171875 Z M 0 -24.234375 "/></g></g></g></svg>