<?xml version="1.0" encoding="utf-8"?>
<!-- Generator: Adobe Illustrator 16.0.0, SVG Export Plug-In . SVG Version: 6.00 Build 0)  -->
<!DOCTYPE svg PUBLIC "-//W3C//DTD SVG 1.1//EN" "http://www.w3.org/Graphics/SVG/1.1/DTD/svg11.dtd">
<svg version="1.1" id="Ñëîé_1" xmlns="http://www.w3.org/2000/svg" xmlns:xlink="http://www.w3.org/1999/xlink" x="0px" y="0px"
	 width="761.962px" height="686.873px" viewBox="0 0 761.962 686.873" enable-background="new 0 0 761.962 686.873"
	 xml:space="preserve">
<g>
	<path opacity="0.5" fill="#173D7A" d="M444.024,425.408c-3.029-0.455-5.897-1.36-8.272-2.729c-7.115-4.11-7.115-10.77,0-14.88
		c7.115-4.106,18.652-4.106,25.768,0.004c2.376,1.367,3.938,3.025,4.729,4.776l49.236-28.43l-104.762-60.482
		c-8.802-5.081-23.072-5.081-31.874,0L274.09,384.15l48.246,27.854c-1.866,0.504-3.621,1.188-5.16,2.079
		c-7.115,4.106-7.115,10.77,0,14.876c7.115,4.11,18.652,4.11,25.767,0c1.542-0.887,2.728-1.902,3.601-2.98l48.244,27.856
		L444.024,425.408z"/>
	<path opacity="0.5" fill="#173D7A" d="M678.48,489.242l-104.761-60.486l-49.237,28.43c-0.791-1.751-2.355-3.405-4.729-4.78
		c-7.119-4.106-18.651-4.106-25.771,0c-7.111,4.11-7.111,10.77,0,14.88c2.38,1.368,5.25,2.272,8.279,2.729l-49.237,28.427
		l50.685,29.267c0.272-2.467,2.018-4.888,5.285-6.773c7.111-4.107,18.651-4.107,25.763,0c7.119,4.109,7.119,10.77,0.004,14.879
		c-3.264,1.883-7.461,2.892-11.729,3.051l50.69,29.262l104.758-60.482C687.281,502.564,687.281,494.323,678.48,489.242z"/>
	<path opacity="0.5" fill="#173D7A" d="M294.341,531.299c-2.326-1.344-5.125-2.238-8.086-2.705l49.166-28.385l-48.246-27.854
		c-0.873,1.078-2.059,2.09-3.599,2.978c-7.115,4.11-18.651,4.11-25.769,0c-7.115-4.106-7.115-10.767,0-14.876
		c1.542-0.889,3.296-1.572,5.16-2.076l-48.245-27.857l-104.757,60.484c-8.802,5.08-8.802,13.318,0,18.402l104.761,60.48
		l49.166-28.382c0.806,1.706,2.357,3.326,4.683,4.666c7.115,4.107,18.652,4.107,25.767,0
		C301.457,542.068,301.457,535.405,294.341,531.299z"/>
	<path opacity="0.5" fill="#173D7A" d="M461.004,577.521c4.037-0.148,8.003-1.103,11.091-2.884c6.729-3.887,6.729-10.187,0-14.072
		c-6.732-3.886-17.644-3.886-24.375,0c-3.085,1.782-4.737,4.072-4.995,6.404l-47.94-27.678l-46.502,26.845
		c2.802,0.442,5.45,1.288,7.649,2.56c6.729,3.886,6.729,10.186,0,14.068c-6.731,3.886-17.643,3.886-24.372,0
		c-2.199-1.268-3.666-2.798-4.428-4.414l-46.501,26.848l99.085,57.206c8.323,4.808,21.822,4.808,30.145,0.003l99.083-57.205
		L461.004,577.521z"/>
	<g>
		<g>
			<path fill="#D3008D" d="M508.242,303.278l-94.153-54.359c-10.661-6.156-27.944-6.156-38.605-0.001l-98.76,57.021l-28.126-11.488
				v27.724l45.755,26.418v18.43c-0.191,3.398,1.937,6.832,6.431,9.43c8.617,4.974,22.59,4.974,31.21,0
				c1.865-1.078,3.303-2.304,4.36-3.609l58.436,33.739l59.635-34.434l0,0v-24.632c7.329-1.102,15.449-0.007,21.187,3.307
				c2.877,1.662,4.773,3.668,5.73,5.789l59.637-34.433v-27.725L508.242,303.278z"/>
			<path fill="#FFFFFF" d="M448.86,346.544l-0.964,1.313l0.542,0.024l-53.648,30.97l-58.436-33.732
				c-1.058,1.302-2.495,2.528-4.36,3.605c-8.62,4.979-22.593,4.979-31.21,0c-3.487-2.014-5.541-4.535-6.205-7.153
				c-0.978,3.852,1.073,7.907,6.205,10.868c8.617,4.977,22.59,4.977,31.21,0c1.865-1.074,3.303-2.305,4.36-3.607l58.436,33.736
				l59.635-34.429v-3.715L448.86,346.544z"/>
			<path fill="#FF2C9C" d="M454.424,344.425c-3.669-0.553-7.146-1.646-10.021-3.308c-8.617-4.976-8.617-13.042,0-18.018
				c8.618-4.978,22.59-4.978,31.207,0c2.877,1.658,4.773,3.666,5.73,5.784l59.637-34.43l-126.89-73.258
				c-10.661-6.157-27.944-6.157-38.605-0.002L248.597,294.45l58.436,33.737c-2.26,0.611-4.386,1.442-6.25,2.518
				c-8.619,4.976-8.619,13.044,0,18.02c8.617,4.979,22.59,4.979,31.21,0c1.865-1.077,3.303-2.304,4.36-3.605l58.436,33.732
				L454.424,344.425z"/>
			<g>
				<path fill="#FFFFFF" d="M307.033,328.188l-58.436-33.737v3.717l54.461,31.443C304.323,329.06,305.638,328.565,307.033,328.188z"
					/>
				<path fill="#FFFFFF" d="M481.341,328.883c-0.957-2.119-2.854-4.125-5.73-5.784c-8.617-4.978-22.589-4.978-31.207,0
					c-5.131,2.96-7.181,7.017-6.203,10.866c0.663-2.616,2.715-5.138,6.203-7.149c8.618-4.979,22.59-4.978,31.207,0
					c2.877,1.657,4.773,3.664,5.73,5.783l59.637-34.431v-3.715L481.341,328.883z"/>
			</g>
		</g>
		<g>
			<path fill="#396CAA" d="M688.303,415.202l-113.6-65.585l-59.638,34.43c-0.956-2.117-2.853-4.124-5.727-5.785
				c-3.012-1.741-6.687-2.857-10.552-3.379c-1.921-2.504-8.345-10.176-8.984-10.358c-0.749-0.214-18.123-5.236-18.123-5.236v27.833
				c-0.069,3.313,2.076,6.635,6.452,9.16c2.874,1.657,6.349,2.752,10.017,3.305l-30.001,17.326l-29.632-10.618v27.722l61.392,35.449
				c0.328-2.988,2.445-5.92,6.396-8.2c4.663-2.697,10.9-3.917,17.011-3.695l-0.003,25.407l61.395,35.445l126.884-73.256
				c5.451-3.146,8.097-7.292,7.976-11.42l0.007,0.008v-27.173L688.303,415.202z"/>
			<path fill="#173D7A" d="M489.911,420.186v49.266c0.328-2.981,2.449-5.91,6.394-8.187c8.617-4.978,22.593-4.978,31.211,0
				c1.848,1.067,3.281,2.283,4.331,3.575c4.594-1.44,9.415-2.256,14.334-2.504v-42.15H489.911z"/>
			<path fill="#173D7A" d="M574.704,349.617l-0.438,0.252v168.294l0.441,0.259l126.884-73.256c5.451-3.146,8.097-7.292,7.976-11.42
				l0.007,0.008v-27.173l-21.27,8.621L574.704,349.617z"/>
			<polygon fill="#396CAA" points="513.315,463.275 513.315,455.252 520.261,459.262 			"/>
			<path fill="#FFFFFF" d="M709.376,408.156c-0.694,3.392-3.275,6.68-7.786,9.284l-126.884,73.256l-53.513-30.896
				c-0.059-0.84-0.308-2.539-0.308-2.539l-7.571-2.01v3.716l61.392,35.445l126.884-73.26
				C707.743,417.605,710.323,412.781,709.376,408.156z"/>
			<path fill="#D4ECFF" d="M701.59,395.151l-126.887-73.259l-59.638,34.432c-0.956-2.12-2.853-4.127-5.727-5.785
				c-8.621-4.977-22.593-4.977-31.207-0.004c-8.621,4.978-8.621,13.047,0,18.021c2.874,1.661,6.349,2.753,10.017,3.306
				l-59.633,34.433l61.395,35.445c0.325-2.984,2.442-5.917,6.394-8.203c8.617-4.974,22.593-4.974,31.211,0.003
				c8.621,4.978,8.621,13.043,0,18.02c-3.948,2.28-9.029,3.506-14.2,3.693l61.392,35.444L701.59,417.44
				C712.253,411.285,712.253,401.307,701.59,395.151z"/>
			<g>
				<path fill="#FFFFFF" d="M478.132,372.271c1.627,0.939,3.461,1.679,5.398,2.26l4.618-2.67c-3.668-0.553-7.143-1.645-10.017-3.306
					c-3.488-2.014-5.54-4.535-6.207-7.153C470.948,365.254,473,369.309,478.132,372.271z"/>
				<path fill="#FFFFFF" d="M533.721,444.406c0.978-3.849-1.074-7.906-6.206-10.867c-8.618-4.977-22.594-4.977-31.211-0.003
					c-3.951,2.286-6.068,5.219-6.394,8.203l-61.395-35.445v3.717l61.395,35.441c0.325-2.984,2.442-5.917,6.394-8.2
					c8.617-4.974,22.593-4.974,31.211,0.004C531.003,439.27,533.055,441.791,533.721,444.406z"/>
			</g>
		</g>
		<g>
			<path fill="#173D7A" d="M360.49,434.016v-27.722l-29.137,10.901l-29.296-16.915c-1.06,1.303-2.495,2.528-4.361,3.61
				c-8.619,4.977-22.593,4.977-31.212,0c-8.419-4.863-8.59-12.666-0.556-17.668l6.807,3.81v-34.405h-21.088l-2.091,14.341
				l-35.257-20.354l-112.24,64.801l-22.64-8.12v27.722h0.001c0,4.035,2.665,8.069,7.995,11.143l126.889,73.261l59.551-34.382
				c0.976,2.072,2.853,4.027,5.67,5.654c8.619,4.978,22.592,4.978,31.209,0c4.474-2.584,6.604-5.996,6.433-9.385V459.03
				L360.49,434.016z"/>
			<path fill="#396CAA" d="M214.299,349.613l-112.24,64.801l-22.64-8.12v27.722h0.001c0,4.035,2.665,8.069,7.995,11.143
				l126.889,73.261V349.617L214.299,349.613z"/>
			<path fill="#FFFFFF" d="M267.706,355.755l-0.726,1.876l0.173,0.169c-0.225,0.114-0.453,0.221-0.669,0.345
				c-5.129,2.964-7.182,7.02-6.202,10.867c0.664-2.615,2.714-5.137,6.202-7.154c1.866-1.074,3.992-1.906,6.251-2.514v-3.717
				L267.706,355.755z"/>
			<path fill="#5793CE" d="M310.734,443.946c-2.817-1.627-6.207-2.708-9.793-3.271l59.549-34.382l-58.434-33.739
				c-1.06,1.307-2.495,2.532-4.361,3.609c-8.619,4.975-22.593,4.975-31.212,0c-8.617-4.974-8.617-13.042,0-18.02
				c1.866-1.077,3.992-1.906,6.251-2.518l-58.436-33.736L87.415,395.145c-10.661,6.158-10.661,16.137,0,22.292l126.889,73.257
				l59.549-34.382c0.978,2.069,2.854,4.031,5.671,5.658c8.619,4.974,22.592,4.974,31.209,0
				C319.353,456.992,319.353,448.924,310.734,443.946z"/>
			<g>
				<path fill="#FFFFFF" d="M310.734,461.97c-8.618,4.974-22.591,4.974-31.209,0c-2.817-1.627-4.694-3.589-5.67-5.658
					l-59.551,34.382L87.415,417.437c-4.509-2.604-7.089-5.893-7.784-9.288c-0.946,4.625,1.633,9.451,7.784,13.002l126.889,73.26
					l59.551-34.382c0.976,2.069,2.853,4.027,5.67,5.654c8.619,4.978,22.592,4.978,31.209,0c5.131-2.96,7.182-7.019,6.205-10.866
					C316.274,457.431,314.221,459.956,310.734,461.97z"/>
				<path fill="#FFFFFF" d="M300.941,440.676c1.58,0.248,3.113,0.614,4.585,1.066l54.964-31.731v-3.717L300.941,440.676z"/>
			</g>
		</g>
		<g>
			<path fill="#D3008D" d="M512.465,529.969l-32.875-18.983c5.171-0.189,10.248-1.413,14.199-3.692
				c3.606-2.082,5.682-4.707,6.272-7.419l0.187,0.128v-1.662c0-0.037,0-0.075,0-0.113v-27.791l-27.809,10.811l6.397,4.314
				c-5.865-0.101-11.782,1.129-16.259,3.713c-3.951,2.283-6.068,5.216-6.396,8.2l-61.393-35.445l-36.077,20.827l-3.743-12.51
				l-19.731-1.662v30.817l6.029-1.53c1.329,0.487,2.604,1.043,3.766,1.713c8.617,4.975,8.617,13.043,0,18.02
				c-8.619,4.975-22.593,4.975-31.212,0c-2.814-1.627-4.693-3.585-5.669-5.654l-32.962,19.029l-26.589-12.373v27.723l126.889,73.26
				c10.661,6.154,27.945,6.154,38.604,0l126.888-73.257v-27.726L512.465,529.969z"/>
			<path fill="#FFFFFF" d="M345.033,471.959c-1.353-0.781-2.863-1.399-4.441-1.928l-0.537-1.054l-4.816-0.294v3.717
				c3.585,0.563,6.978,1.647,9.794,3.274c3.488,2.011,5.538,4.535,6.203,7.153C352.215,478.977,350.163,474.922,345.033,471.959z"/>
			<path fill="#FF2C9C" d="M479.59,483.264c5.167-0.193,10.248-1.413,14.199-3.696c8.618-4.974,8.618-13.042,0-18.016
				c-8.621-4.978-22.593-4.978-31.211-0.004c-3.951,2.28-6.068,5.212-6.396,8.2l-61.393-35.445l-59.551,34.381
				c3.585,0.566,6.978,1.651,9.794,3.275c8.617,4.974,8.617,13.042,0,18.02c-8.619,4.974-22.593,4.977-31.212-0.004
				c-2.814-1.623-4.693-3.582-5.669-5.65l-59.551,34.381l126.889,73.26c10.661,6.152,27.945,6.152,38.604,0l126.888-73.26
				L479.59,483.264z"/>
			<g>
				<path fill="#FFFFFF" d="M499.997,472.418c-0.667,2.618-2.719,5.136-6.207,7.149c-3.951,2.283-9.028,3.503-14.199,3.696
					l5.401,3.119c3.216-0.598,6.242-1.624,8.798-3.099C498.918,480.32,500.974,476.266,499.997,472.418z"/>
				<path fill="#FFFFFF" d="M414.094,591.965c-10.659,6.152-27.943,6.152-38.604,0l-126.889-73.26v3.717l126.889,73.256
					c10.661,6.155,27.945,6.155,38.604,0l126.888-73.256v-3.717L414.094,591.965z"/>
			</g>
		</g>
		<g>
			<path fill="#396CAA" d="M256.478,437.132c-22.839,13.188-59.868,13.184-82.707,0c-22.839-13.188-22.841-34.564-0.001-47.752
				c22.839-13.188,59.867-13.188,82.708,0C279.317,402.567,279.317,423.944,256.478,437.132z"/>
			<g>
				<path fill="#FF2C9C" d="M187.131,67.624c0,0,1.274,26.248,3.271,43.887c1.997,17.641,44.482-13.548,44.482-13.548V77.878
					L187.131,67.624z"/>
				<g>
					<path fill="#173D7A" d="M209.758,394.205c0.639,1.592,11.648,14.997,22.655,18.348c4.785,1.454,8.004,1.645,10.113,1.392
						c2.115-0.248,3.423-2.432,2.709-4.438c-1.895-5.332-7.324-16.44-21.12-23.276C205.452,376.973,209.758,394.205,209.758,394.205
						z"/>
					<path fill="#173D7A" d="M206.09,399.355c0,0,4.147,9.729,5.424,17.863c0.779,4.964-1.945,11.409-4.188,15.682
						c-1.391,2.652-4.919,3.25-7.138,1.236c-3.597-3.264-8.177-8.932-8.935-17.076c-1.275-13.72,0-16.113,0-16.113L206.09,399.355z"
						/>
					<path fill="#D4ECFF" d="M179.574,233.528c0,0-1.437,17.306,0,36.449c1.436,19.143,6.575,108.671,7.532,130.21
						c0,0-0.479,6.518,12.144,5.084c12.623-1.437,11.606-8.676,11.606-8.676s17.728-0.235,18.287-10.688
						c0.558-10.448,18.156-124.78,18.156-165.886L179.574,233.528z"/>
					<g>
						<path fill="#FFC2B0" d="M253.856,144.043l8.687,13.452l29.854,36.063c0,0-1.027,3.345-4.743,4.221
							c-2.903,0.684-28.012-23.273-38.858-33.785c-2.881-2.792-3.361-7.237-1.144-10.583L253.856,144.043z"/>
						<path fill="#5793CE" d="M236.912,88.826c0,0,13.797-0.357,18.6,19.582c4.803,19.939,8.562,44.907,4.383,46.982
							c-12.541,6.229-20.476-1.06-20.476-1.06L236.912,88.826z"/>
						<path fill="#5793CE" d="M241.042,89.673c-2.355-0.982-4.994-1.114-7.446-0.409c-11.754,3.375-55.953,16.346-63.235,22.572
							c-8.415,7.193,12.621,47.615,12.318,60.867c-0.303,13.253-1.799,28.876-2.968,43.283c-1.171,14.408-2.755,22.308,9.028,28.432
							c11.784,6.125,31.904,6.408,46.963-5.068c15.062-11.476,12.329-19.327,11.703-27.657c-0.626-8.332-5.756-44.363-5.312-54.592
							c0,0,5.307-3.909,9.237-10.613c3.932-6.704-3.013-19.028-5.894-27.04c-2.884-8.012,1.626-17.171,0.733-23.71
							C245.708,92.372,243.56,90.723,241.042,89.673z"/>
						<path fill="#FFFFFF" d="M207.258,116.903l5.024,5.759c0.652,0.748,0.946,1.743,0.807,2.726l-4.391,30.669
							c-0.124,0.859,0.092,1.733,0.601,2.437l10.741,14.869c0.475,0.66,1.497,0.51,1.763-0.259l6.58-18.915
							c0.249-0.716,0.247-1.496-0.004-2.21l-9.908-28.233c-0.218-0.617-0.251-1.284-0.099-1.921l1.761-7.365L207.258,116.903z"/>
						
							<ellipse transform="matrix(0.9919 -0.127 0.127 0.9919 -11.7092 27.574)" fill="#FFFFFF" cx="210.308" cy="105.58" rx="16.74" ry="13.289"/>
						
							<ellipse transform="matrix(0.9919 -0.1271 0.1271 0.9919 -11.7105 27.5776)" fill="#FFC2B0" cx="210.308" cy="105.58" rx="11.965" ry="9.498"/>
						<path fill="#FFC2B0" d="M215.662,86.978c0,0-7.979-6.562-9.544-3.238c-1.568,3.322-2.86,17.584-2.86,17.584l15.844,4.257
							l-2.405-14.451C216.697,91.13,219.868,88.441,215.662,86.978z"/>
						<circle fill="#FFC2B0" cx="216.808" cy="69.953" r="23.657"/>
						<path fill="#EA9C92" d="M205.012,87.874c-0.141,0.745-0.275,1.542-0.403,2.357c1.591,8.231,13.908,11.833,13.908,11.833
							l-1.819-10.935c0,0,1.493-1.267,1.071-2.534C212.9,87.06,206.766,85.698,205.012,87.874z"/>
						<circle fill="#FFC2B0" cx="216.808" cy="69.953" r="23.657"/>
						<polygon fill="#FFC2B0" points="158.522,170.09 161.17,233.395 170.425,234.35 176.45,177.36 						"/>
						<path fill="#396CAA" d="M188.937,164.8c-0.5-2.205-4.552-4.018-5.171-6.893c-3.177-14.746-3.942-36.492-3.942-36.492
							l-2.585,29.705c2.983,8.812,5.545,16.897,5.439,21.583c-0.179,7.779-0.77,16.377-1.462,25.064l0.001,0.028
							C181.217,197.794,192,178.315,188.937,164.8z"/>
						<path fill="#5793CE" d="M172.126,110.537c0,0-7.399,2.83-11.588,25.56c-4.189,22.733-7.321,45.503,0.146,48.436
							c7.467,2.934,13.707,5.141,15.902-0.938c2.194-6.081,3.555-35.375,3.831-45.912S181.095,112.62,172.126,110.537z"/>
						<path fill="#FFC2B0" d="M290.183,190.921c0,0,4.007,1.473,6.905,4.629c2.376,2.588,3.678,4.783,4.718,6.334
							c2.306,3.438,4.25,10.872,2.844,11.796c-1.404,0.926-9.446-12.445-10.741-9.335c-1.295,3.111,0.011,5.985-1.65,6.033
							c-1.661,0.046-7.437-13.44-11.982-17.622C275.732,188.574,290.183,190.921,290.183,190.921z"/>
					</g>
					<path fill="#396CAA" d="M210.856,396.596c0,0,2.197-0.031,5.065-0.522l0,0l3.472-139.169L210.856,396.596z"/>
				</g>
				<g>
					<path fill="#396CAA" d="M197.46,321.424l-4.923-6.43l-51.787-29.983c-1.661-0.962-3.003-3.537-3.001-5.752l0.045-42.398
						l-2.977-3.888l2.797-1.62l0.002,0.004c0.537-0.346,1.249-0.337,2.032,0.116l58.689,33.98c1.661,0.962,3.003,3.537,3.002,5.751
						l-0.05,46.175c-0.001,1.245-0.428,2.113-1.098,2.462l0,0L197.46,321.424z"/>
					<path fill="#396CAA" d="M161.648,297.111l-3.679-2.131l-20.197-35.081l0.021-23.038l-2.977-3.888l2.797-1.62l0.002,0.004
						c0.537-0.346,1.249-0.337,2.032,0.116l58.689,33.98c0.877,0.508,1.664,1.468,2.213,2.587L161.648,297.111z"/>
					<path fill="#396CAA" d="M136.137,234.699l-1.321-1.726l2.797-1.62l0.002,0.004c0.537-0.346,1.249-0.337,2.032,0.116
						l1.035,0.601L136.137,234.699z"/>
					<path fill="#396CAA" d="M198.87,265.828c1.302,1.068,2.313,3.085,2.452,4.946l-5.735,3.309l-2.748-4.772L198.87,265.828z"/>
					<path fill="#D4ECFF" d="M195.542,267.073l-58.69-33.98c-1.659-0.962-3.008,0.056-3.011,2.271l-0.048,46.173
						c-0.003,2.216,1.34,4.791,3.001,5.751l58.689,33.98c1.661,0.96,3.009-0.053,3.012-2.271l0.05-46.174
						C198.545,270.609,197.202,268.035,195.542,267.073z"/>
					<path fill="#FFFFFF" d="M196.427,266.542l-58.689-33.979c-0.98-0.566-1.842-0.433-2.391,0.218
						c0.444-0.089,0.954-0.007,1.504,0.313l58.69,33.98c1.661,0.962,3.004,3.536,3.002,5.751l-0.05,46.174
						c-0.001,0.908-0.238,1.601-0.62,2.053c0.894-0.18,1.504-1.105,1.505-2.583l0.05-46.174
						C199.431,270.078,198.088,267.503,196.427,266.542z"/>
				</g>
				<polygon fill="#FFFFFF" points="183.485,300.19 180.689,298.576 180.689,274.562 183.485,276.175 				"/>
				<polygon fill="#FFFFFF" points="176.955,296.419 174.159,294.806 174.159,270.792 176.955,272.405 				"/>
				<polygon fill="#FFFFFF" points="170.424,292.649 167.628,291.036 167.628,267.021 170.424,268.635 				"/>
				<path fill="#FFC2B0" d="M161.244,232.866c0,0-2.446,14.775-2.078,19.51c0.368,4.731,2.901,12.537,4.824,12.373
					c1.922-0.166,0.063-19.032,3.439-17.153c3.377,1.879,3.731,5.103,5.26,3.963c1.529-1.139-2.667-17.265-1.546-24.257
					C172.261,220.31,161.244,232.866,161.244,232.866z"/>
				<path fill="#EA9C92" d="M225.896,72.018c11.865,4.216,14.177,1.645,14.289,1.507c0.108-0.717,0.197-1.439,0.24-2.177
					c0.156-2.62-0.14-5.157-0.788-7.559l-30.788-4.156C208.848,59.633,213.708,67.69,225.896,72.018z"/>
				<path fill="#FF2C9C" d="M241.277,47.779c-2.797-2.396-12.889-14.25-30.969-11.454c-11.3,1.749-20.824,9.457-22.937,27.04
					c-1.423,11.848,2.926,23.517,10.936,32.144c0.434-0.2,0.882-0.385,1.283-0.649c4.529-2.981,5.018-4.618,5.017-4.634l1-8.973
					c-0.032-1.272-0.984-2.408-2.255-2.486c-0.983-0.062-2.177-0.536-3.313-2.021c-2.597-3.396-1.399-8.688,3.795-8.889
					c2.715-0.104,3.766-1.572,4.15-2.95c0.334-1.2,1.599-1.865,2.77-1.442c5.909,2.139,20.468,6.748,29.838,4.094
					C252.578,64.162,244.074,50.176,241.277,47.779z"/>
				<path fill="#FFFFFF" d="M227.794,82.704l7.238-1.989c0,0-3.454,5.437-8.5,6.82c-5.043,1.387-5.829-2.883-5.829-2.883
					L227.794,82.704z"/>
				<polygon fill="#396CAA" points="173.549,251.102 167.382,247.572 169.698,251.353 172.816,252.504 				"/>
			</g>
			<circle fill="#FFFFFF" cx="200.542" cy="77.332" r="2.453"/>
		</g>
		<g>
			<g>
				<path fill="#699DD1" d="M614.477,428.748c-22.441,12.957-58.829,12.957-81.271,0c-22.44-12.959-22.44-33.963,0-46.922
					c22.441-12.957,58.826-12.957,81.267,0.003C636.914,394.785,636.917,415.793,614.477,428.748z"/>
				<g>
					<g>
						<g>
							<path fill="#173D7A" d="M577.214,387.805c-0.646,1.605-11.698,15.063-22.751,18.428c-4.809,1.464-8.038,1.654-10.159,1.402
								c-2.124-0.253-3.437-2.442-2.718-4.46c1.899-5.354,7.354-16.51,21.208-23.377
								C581.536,370.504,577.214,387.805,577.214,387.805z"/>
							<path fill="#173D7A" d="M580.897,392.979c0,0-4.166,9.771-5.447,17.94c-0.78,4.987,1.955,11.46,4.207,15.751
								c1.396,2.666,4.942,3.264,7.167,1.243c3.613-3.278,8.21-8.974,8.977-17.153c1.278-13.777,0-16.182,0-16.182L580.897,392.979z
								"/>
							<path fill="#D4ECFF" d="M607.527,226.444c0,0,1.444,17.38,0,36.606c-1.443,19.226-6.601,109.136-7.564,130.765
								c0,0,0.48,6.549-12.195,5.108c-12.677-1.443-11.654-8.714-11.654-8.714s-17.802-0.238-18.368-10.732
								c-0.56-10.496-18.234-125.315-18.234-166.595L607.527,226.444z"/>
							<path fill="#396CAA" d="M576.113,390.209c0,0-2.207-0.031-5.088-0.525l0,0l-3.488-139.763L576.113,390.209z"/>
							<path fill="#5793CE" d="M588.7,98.909c28.758,11.923,28.185,28.924,28.185,28.924s-5.634,62.326-3.713,103.952
								c0.805,17.4-92.451,18.729-78.541-27.695c16.396-54.736,10.248-99.049,17.926-105.732
								C560.235,91.674,581.263,95.824,588.7,98.909z"/>
							<path fill="#FFC2B0" d="M597.953,113.983c-1.506,5.839-9.156,8.916-17.087,6.873c-7.935-2.043-13.146-8.433-11.644-14.274
								c1.506-5.839,9.156-8.916,17.09-6.872C594.243,101.753,599.455,108.144,597.953,113.983z"/>
							<path fill="#FFFFFF" d="M585.708,123.288c-1.717,0-3.499-0.217-5.295-0.679c-8.888-2.291-14.694-9.681-12.942-16.477
								c0.874-3.395,3.433-6.1,7.212-7.618c3.578-1.438,7.868-1.639,12.078-0.553c4.207,1.084,7.869,3.328,10.307,6.32
								c2.574,3.152,3.506,6.758,2.636,10.154l0,0C598.305,119.857,592.512,123.288,585.708,123.288z M581.394,100.881
								c-1.91,0-3.733,0.332-5.367,0.987c-2.678,1.077-4.474,2.913-5.054,5.165c-1.254,4.865,3.385,10.283,10.342,12.073
								c6.952,1.793,13.636-0.706,14.89-5.573l0,0c0.58-2.255-0.106-4.73-1.934-6.968c-1.955-2.4-4.946-4.212-8.411-5.103
								C584.358,101.075,582.851,100.881,581.394,100.881z"/>
							<path fill="#FFC2B0" d="M577.169,97.612c0,0,0.249,1.152-0.248,10.267c-0.159,2.865,9.871,5.541,12.465,2.948
								c2.598-2.593,1.559-5.292,2.18-15.041C592.188,86.034,577.169,97.612,577.169,97.612z"/>
							<path fill="#EA9C92" d="M591.566,95.786c0,0-2.473,9.042-14.648,12.509l0.187-8.217L591.566,95.786z"/>
							<path fill="#FFC2B0" d="M599.283,72.815c3.06,11.836-4.056,23.914-15.893,26.975c-11.837,3.06-23.915-4.055-26.973-15.892
								c-3.063-11.837,4.052-23.915,15.889-26.975C584.147,53.862,596.222,60.977,599.283,72.815z"/>
							<path fill="#EA9C92" d="M582.931,79.169c0,0-12.186,5.221-20.628,5.28c-8.441,0.06-6.579-7.006-6.579-7.006l25.055-3.621
								L582.931,79.169z"/>
							<path fill="#FF2C9C" d="M559.789,80.544c0,0,10.618-4.507,19.931-2.627c2.192,0.442,4.221,1.612,5.63,3.346
								c0.463,0.566,1.043,1.083,1.703,1.232c1.65,0.374,4.358-6.48,7.563-6.636c3.213-0.155,5.354,2.118,2.726,6.332
								c-2.636,4.215-1.748,8.932-0.532,9.609c1.213,0.676,14.055-9.164,2.726-31.612c-11.333-22.451-40.119-10.36-44.599-5.809
								c0,0-4.711,4.109-8.552,0.453C546.384,54.831,542.087,87.038,559.789,80.544z"/>
							<path fill="#FFC2B0" d="M538.488,93.804l-15.463-6.667c-1.772-0.763-3.144-2.236-3.772-4.062l-15.271-44.258l-7.08,1.23
								l12.348,55.074c0.573,2.572,2.218,4.775,4.515,6.066l25.746,14.462L538.488,93.804z"/>
						</g>
						<path fill="#FFC2B0" d="M699.39,101.003l3.548-1.627c3.019-1.387,5.778-3.292,8.141-5.626l2.474-2.438
							c1.396-1.376,1.807-3.459,1.046-5.264l0,0c-0.594-1.408-2.255-2.02-3.619-1.33l-7.413,3.742c0,0,1.161-3.28,0.602-4.134
							c-0.557-0.853-6.29,5.478-8.942,9.966C692.572,98.78,699.39,101.003,699.39,101.003z"/>
						<path fill="#FFC2B0" d="M637.67,118.705l13.226-1.478c3.129-0.35,6.155-1.33,8.891-2.879l35.438-20.058l4.165,6.712
							l-36.232,27.974c-1.119,0.865-2.346,1.582-3.641,2.138l-21.611,9.238L637.67,118.705z"/>
						<path fill="#FFC2B0" d="M496.902,40.049l-1.351-1.558c-1.548-1.792-2.556-3.991-2.905-6.34l-0.946-6.454
							c-0.293-2.007,0.494-4.051,2.124-5.257c0.063-0.043,0.121-0.087,0.184-0.129c1.713-1.183,4.1-0.327,4.901,1.597l3.181,7.69
							c0,0-1.005-3.981,0.28-4.423c0.939-0.323,2.725,4.619,1.675,7.367c-1.061,2.748-0.063,6.275-0.063,6.275L496.902,40.049z"/>
						<path fill="#FFFFFF" d="M569.067,93.601l-5.72-1.571c0,0,2.729,4.292,6.714,5.388c3.986,1.095,4.604-2.278,4.604-2.278
							L569.067,93.601z"/>
					</g>
				</g>
				<path fill="#5793CE" d="M560.49,95.179c0,0-25.829-5.105-33.721-7.501c-7.886-2.397-11.185,19.271-10.584,24.764
					c0.602,5.492,27.463,11.621,30.658,21.039C550.039,142.897,560.49,95.179,560.49,95.179z"/>
				<path fill="#5793CE" d="M599.994,104.688c0,0,18.877,8.104,50.478,12.05c1.281,0.162,2.383,1.012,2.812,2.234
					c1.216,3.499,3.295,11.138,1.668,18.994c-0.663,3.239-3.596,5.513-6.908,5.49c-9.889-0.069-31.179,0.881-34.633,10.126
					C608.884,165.698,599.994,104.688,599.994,104.688z"/>
				<path fill="#FFFFFF" d="M588.882,121.721l-5.178,5.624c-0.67,0.729-0.991,1.715-0.877,2.701l3.558,30.777
					c0.1,0.862-0.139,1.73-0.667,2.422l-11.139,14.57c-0.494,0.646-1.51,0.468-1.755-0.306l-6.065-19.086
					c-0.231-0.723-0.207-1.502,0.063-2.211l10.669-27.952c0.235-0.613,0.283-1.279,0.148-1.92l-1.558-7.411L588.882,121.721z"/>
			</g>
			<path fill="#396CAA" d="M645.442,137.726c-5.654,0.657-19.525,1.852-30.191,2.741c-6.114,0.509-10.176,6.402-8.628,12.337
				c5.685,21.836-1.842,56.937-0.484,68.815c1.627,14.215-6.99,19.713-7.032,19.743c8.508-1.838,14.269-5.197,14.065-9.577
				c-1.178-25.566,0.49-58.919,1.955-80.869c6.21-6.78,24.227-7.527,33.023-7.459c3.361,0.027,6.18-2.375,6.839-5.667
				c0.815-4.094,0.629-8.101,0.101-11.505C655.089,126.502,655.085,136.605,645.442,137.726z"/>
		</g>
		<g>
			<path fill="#D3008D" d="M354.306,549.57c26.564,15.336,69.629,15.336,96.195,0c26.564-15.336,26.564-40.201,0.003-55.537
				c-26.563-15.34-69.634-15.34-96.195,0C327.744,509.369,327.742,534.234,354.306,549.57z"/>
			<g>
				<path fill="#173D7A" d="M360.726,500.989c-4.739,2.021-7.723,7.306-7.327,12.983c0.185,2.678,0.509,5.175,1.066,6.35
					c1.509,3.163,6.451,7.509,14.338,4.39c7.888-3.119,25.407-19.577,26.063-30.351C396.084,474.349,373.202,495.66,360.726,500.989
					z"/>
				<path fill="#173D7A" d="M407.07,534.09c0,0-1.893,11.539-0.973,13.653c0.918,2.114,6.406,6.628,14.518,5.651
					c8.11-0.975,31.443-9.022,36.642-24.399c8.055-23.84-45.041,1.789-45.041,1.789L407.07,534.09z"/>
				<path fill="#D4ECFF" d="M429.87,349.631l1.806,180.124c-0.191,6.266-4.295,11.561-9.813,12.489
					c-0.682,0.114-1.412,0.207-2.195,0.276c-5.586,0.487-8.841-1.906-10.7-4.428c-1.504-2.038-2.295-4.625-2.408-7.271
					l-2.299-76.894l-11.479-68.753l-15.884,121.682c-0.254,3.292-1.83,6.332-4.365,8.014c-1.75,1.157-4.125,2.056-7.24,1.962
					c-4.547-0.138-7.704-2.569-9.63-4.742c-1.527-1.72-2.331-4.086-2.299-6.515l6.296-73.211l2.343-93.388L429.87,349.631z"/>
				<path fill="#FFC2B0" d="M406.543,188.395l-2.848,16.413c0,0-0.106,5.6,6.146,7.152c6.252,1.551,8.185-2.486,8.185-2.486
					l2.827-18.484L406.543,188.395z"/>
				<path fill="#FFC2B0" d="M441.003,179.405c-4.438,14.06-18.176,22.221-30.681,18.227c-12.507-3.994-19.047-18.632-14.608-32.691
					c4.438-14.062,18.176-22.222,30.683-18.228C438.902,150.707,445.442,165.342,441.003,179.405z"/>
				<path fill="#5793CE" d="M407.285,205.106c-0.433-0.174-26.528-16.978-36.174,0.606c-15.728,28.671-4.225,61.544-9.837,132.921
					c-0.939,11.943,16.075,19.221,24.117,23.815c7.155,4.089,15.166,6.594,23.407,6.658c8.155,0.066,23.792-7.184,23.224-17.847
					c-2.61-49.029,1.724-90.359,5.729-130.461C437.751,220.8,432.746,215.415,407.285,205.106z"/>
				<path fill="#396CAA" d="M392.782,385.176l-15.884,121.682c-0.254,3.292-1.83,6.332-4.365,8.014
					c-0.413,0.273-0.869,0.528-1.355,0.764c3.297-2.47,12.922-104.605,14.704-115.966
					C387.666,388.299,392.782,385.176,392.782,385.176z"/>
			</g>
			<polygon fill="#FFC2B0" points="491.9,219.963 513.75,176.597 506.894,172.268 484.253,205.3 			"/>
			<polygon fill="#FFC2B0" points="347.794,173.915 358.422,125.562 366.886,125.655 363.707,165.756 			"/>
			<path fill="#5793CE" d="M437.751,220.8c0,0,24.438,9.639,45.431-16.847c1.848-2.333,5.647-2.072,6.746,0.443
				c1.89,4.339,4.252,10.897,1.385,17.055c-12.693,27.232-55.988,26.286-66.42,41.554C414.463,278.271,437.751,220.8,437.751,220.8z
				"/>
			<path fill="#5793CE" d="M390.733,199.083c0,0-20.176,1.551-23.082-15.915c-1.495-8.991-1.943-14.362-2.028-17.457
				c-0.055-2.095-1.875-3.682-3.956-3.425c-4.832,0.599-12.312,2.043-13.328,5.28c-1.514,4.835-4.365,28.55,15.564,64.94
				C376.96,256.345,390.733,199.083,390.733,199.083z"/>
			<path fill="#FFC2B0" d="M358.38,125.683l0.191-5.514c0.069-1.946,0.638-3.842,1.648-5.504l5.589-9.182l1.458-1.836
				c1.346-1.696,3.753-2.107,5.587-0.953l1.284,0.808c1.639,1.031,2.583,2.875,2.459,4.808l-2.893,7.847l3.657-0.71
				c0.711-0.138,1.397,0.332,1.523,1.045l0,0c0.109,0.604-0.222,1.202-0.791,1.434l-5.971,2.407l-5.42,7.675L358.38,125.683z"/>
			<path fill="#FFC2B0" d="M513.913,176.872l2.556-4.887c0.905-1.728,1.348-3.656,1.285-5.603l-0.317-10.742l-0.363-2.317
				c-0.331-2.14-2.221-3.686-4.383-3.589l-1.517,0.067c-1.938,0.084-3.664,1.225-4.514,2.964l-1.365,8.25l-2.825-2.424
				c-0.549-0.471-1.378-0.399-1.844,0.155l0,0c-0.391,0.473-0.397,1.156-0.018,1.637l4,5.046l1.036,10.509L513.913,176.872z"/>
			<path fill="#396CAA" d="M421.816,257.543c-2.123,9.686,10.67,82.738-3.557,109.455c7.115-2.881,14.147-8.525,13.763-15.733
				c-1.866-35.066-0.176-66.18,2.399-95.734c12.166-6.165,31.177-9.841,44.623-19.687
				C464.627,241.16,423.71,248.898,421.816,257.543z"/>
			<path fill="#FFFFFF" d="M397.902,200.471l3.624-3.722c0,0,5.962,6.09,10.75,7.146c0,0,5.765,1.635,8.578,1.775l2.333,6.431
				C423.187,212.101,404.207,210.742,397.902,200.471z"/>
			<path fill="#173D7A" d="M423.98,179.84c1.002-0.018,1.931-0.471,2.499-1.294c0.991-1.434,0.364-8.029,3.417-9.118
				c4.774-1.702,16.094,4.269,17.303-12.946c0.628-8.947-3.724-11.326-3.707-16.227c0,0,0.377,2.457-22.646,0.929
				c-23.021-1.532-30.508,18.913-31.052,28.652c-0.545,9.736,4.167,25.747,19.902,27.945c2.608,0.364,13.567-8.447,13.284-9.603
				c-0.283-1.155-4.42-1.09-3.82-4.454C419.657,180.921,421.363,179.889,423.98,179.84z"/>
		</g>
	</g>
</g>
<g>
	<g>
		<path fill="#5793CE" d="M93.696,288.925l-58.142-33.568c-1.15-0.663-2.19-0.689-3.004-0.24c0-0.005,0.003-0.038,0.003-0.038
			l-5.639,3.259c0,0,2.497,0.91,3.962,1.448v42.342c0,3.443,2.094,7.445,4.678,8.937l55.573,32.085v4.967l5.698-3.28l-0.03-0.01
			c0.962-0.589,1.579-1.877,1.579-3.73v-43.232C98.374,294.419,96.28,290.418,93.696,288.925z"/>
		<path fill="#D4ECFF" d="M87.953,347.944l-58.142-33.569c-2.583-1.491-4.678-5.494-4.678-8.938v-43.232
			c0-3.445,2.095-5.029,4.678-3.536l58.142,33.567c2.584,1.492,4.679,5.493,4.679,8.938v43.232
			C92.631,347.853,90.537,349.437,87.953,347.944z"/>
		<path fill="#FFFFFF" d="M87.953,292.236l-58.142-33.567c-1.469-0.849-2.763-0.675-3.622,0.243
			c0.625-0.053,1.319,0.095,2.064,0.523l58.142,33.57c2.584,1.492,4.679,5.493,4.679,8.938v43.232c0,1.483-0.406,2.596-1.056,3.292
			c1.543-0.126,2.614-1.608,2.614-4.061v-43.232C92.631,297.729,90.537,293.729,87.953,292.236z"/>
	</g>
	<g>
		<path fill="#FFFFFF" d="M49.364,299.478c0,2.501-1.756,3.516-3.923,2.264c-2.167-1.25-3.924-4.291-3.924-6.794
			c0-2.5,1.757-3.514,3.924-2.266C47.607,293.934,49.364,296.977,49.364,299.478z"/>
		<path fill="#FFFFFF" d="M61.248,306.341c0,2.5-1.757,3.513-3.923,2.262c-2.167-1.25-3.923-4.293-3.923-6.795
			s1.756-3.515,3.923-2.263C59.491,300.795,61.248,303.838,61.248,306.341z"/>
		<path fill="#FFFFFF" d="M73.132,313.2c0,2.501-1.756,3.517-3.924,2.266c-2.166-1.25-3.923-4.295-3.923-6.795
			c0-2.501,1.757-3.517,3.923-2.264C71.376,307.656,73.132,310.698,73.132,313.2z"/>
	</g>
</g>
<g>
	<g>
		<polygon opacity="0.5" fill="#173D7A" points="65.287,640.17 26.089,617.539 65.286,594.911 104.483,617.539 		"/>
		<polygon fill="#D3008D" points="104.483,588.809 65.287,611.439 65.287,566.178 104.483,543.55 		"/>
		<polygon fill="#FF2C9C" points="65.287,566.178 26.09,543.55 65.286,520.919 104.482,543.55 		"/>
		<polygon fill="#FF2C9C" points="65.287,611.439 26.09,588.809 26.09,543.55 65.287,566.178 		"/>
	</g>
	<polygon fill="#FFFFFF" points="51.169,586.988 40.206,580.656 40.206,567.998 51.169,574.329 	"/>
</g>
<g>
	<g>
		<polygon opacity="0.5" fill="#173D7A" points="699.39,664.725 658.582,641.164 699.387,617.604 740.197,641.164 		"/>
		<polygon fill="#173D7A" points="740.197,611.252 699.39,634.813 699.39,587.696 740.197,564.133 		"/>
		<polygon fill="#D4ECFF" points="699.39,587.696 658.582,564.133 699.387,540.576 740.197,564.133 		"/>
		<polygon fill="#5793CE" points="699.39,634.813 658.582,611.252 658.582,564.133 699.39,587.696 		"/>
	</g>
	<polygon fill="#FFFFFF" points="684.694,609.356 673.282,602.766 673.282,589.589 684.694,596.179 	"/>
</g>
<g>
	<g>
		<path fill="#D3008D" d="M725.841,288.165l-56.843-32.819c-1.126-0.649-2.142-0.674-2.939-0.235c0-0.005,0.007-0.038,0.007-0.038
			l-5.52,3.187c0,0,2.442,0.891,3.879,1.416v41.396c0,3.368,2.045,7.282,4.573,8.74l54.332,31.37v4.856l5.571-3.209l-0.031-0.01
			c0.943-0.574,1.547-1.833,1.547-3.646v-42.269C730.417,293.535,728.37,289.623,725.841,288.165z"/>
		<path fill="#FF2C9C" d="M720.228,345.867l-56.846-32.82c-2.525-1.46-4.573-5.373-4.573-8.74v-42.268
			c0-3.367,2.048-4.917,4.573-3.456l56.846,32.819c2.525,1.458,4.573,5.37,4.573,8.738v42.268
			C724.801,345.775,722.753,347.324,720.228,345.867z"/>
		<path fill="#FFFFFF" d="M721.625,290.396l-56.847-32.82c-1.603-0.922-3.005-0.635-3.824,0.551
			c0.708-0.185,1.534-0.063,2.429,0.455l56.846,32.819c2.525,1.458,4.573,5.37,4.573,8.738v42.268c0,1.235-0.279,2.22-0.756,2.905
			c1.288-0.335,2.151-1.732,2.151-3.908v-42.269C726.197,295.768,724.149,291.856,721.625,290.396z"/>
	</g>
	<g>
		<path fill="#FFFFFF" d="M682.5,298.48c0,2.447-1.721,3.439-3.834,2.215c-2.121-1.225-3.841-4.197-3.841-6.643
			s1.72-3.438,3.841-2.215C680.78,293.061,682.5,296.034,682.5,298.48z"/>
		<path fill="#FFFFFF" d="M694.116,305.188c0,2.447-1.716,3.437-3.834,2.216c-2.117-1.225-3.837-4.199-3.837-6.646
			c0-2.445,1.72-3.437,3.837-2.212C692.4,299.769,694.116,302.743,694.116,305.188z"/>
		<path fill="#FFFFFF" d="M705.736,311.898c0,2.445-1.714,3.437-3.834,2.214c-2.121-1.223-3.834-4.198-3.834-6.644
			c0-2.445,1.713-3.437,3.834-2.215C704.022,306.477,705.736,309.453,705.736,311.898z"/>
	</g>
</g>
<g>
	
		<rect x="687.744" y="165.606" transform="matrix(-0.2484 -0.9687 0.9687 -0.2484 695.6883 880.211)" fill="#5793CE" width="3.169" height="9.203"/>
	
		<rect x="683.198" y="170.045" transform="matrix(-0.2489 -0.9685 0.9685 -0.2489 686.1074 881.3495)" fill="#5793CE" width="3.17" height="9.205"/>
	
		<rect x="678.648" y="174.452" transform="matrix(-0.2478 -0.9688 0.9688 -0.2478 675.3166 882.4395)" fill="#5793CE" width="3.169" height="9.204"/>
	
		<rect x="674.089" y="178.929" transform="matrix(-0.2484 -0.9687 0.9687 -0.2484 665.7076 883.6174)" fill="#5793CE" width="3.169" height="9.206"/>
</g>
<path fill="#D4ECFF" d="M69.209,103.338c-9.153,0-16.598-7.444-16.598-16.597c0-9.153,7.444-16.597,16.598-16.597
	c9.152,0,16.597,7.445,16.597,16.597C85.806,95.893,78.362,103.338,69.209,103.338z M69.209,73.765
	c-7.156,0-12.978,5.821-12.978,12.977c0,7.155,5.821,12.976,12.978,12.976c7.154,0,12.976-5.821,12.976-12.976
	C82.185,79.585,76.364,73.765,69.209,73.765z"/>
<path fill="#5793CE" d="M38.68,453.4c-6.49,0-11.77-5.279-11.77-11.77c0-6.488,5.279-11.77,11.77-11.77
	c6.488,0,11.769,5.279,11.769,11.77C50.448,448.121,45.167,453.4,38.68,453.4z M38.68,433.484c-4.492,0-8.147,3.654-8.147,8.146
	s3.655,8.148,8.147,8.148s8.148-3.656,8.148-8.148S43.172,433.484,38.68,433.484z"/>
<path fill="#5793CE" d="M669.152,48.02l-7.988-16.248l16.248-7.989l7.988,16.249L669.152,48.02z M666.01,33.423l4.792,9.75
	l9.751-4.794l-4.795-9.75L666.01,33.423z"/>
<rect x="506.004" y="144.62" transform="matrix(-0.8974 0.4412 -0.4412 -0.8974 1033.6423 57.2448)" fill="#5793CE" width="8.325" height="8.325"/>
<g>
	
		<rect x="360.344" y="46.55" transform="matrix(-0.7071 -0.7071 0.7071 -0.7071 579.2361 350.2287)" fill="#D4ECFF" width="3.618" height="17.201"/>
	
		<rect x="353.536" y="53.356" transform="matrix(-0.7071 -0.7071 0.7071 -0.7071 579.1799 350.2547)" fill="#D4ECFF" width="17.201" height="3.619"/>
</g>
<circle fill="#D4ECFF" cx="483.081" cy="61.248" r="8.542"/>
<circle fill="#D4ECFF" cx="256.731" cy="539.78" r="4.964"/>
<g>
	<g>
		<path fill="#5793CE" d="M445.87,97.198L409.52,76.21c-0.721-0.415-1.371-0.432-1.879-0.151c0-0.002,0.002-0.023,0.002-0.023
			l-3.525,2.037c0,0,1.561,0.569,2.479,0.906v26.472c0,2.154,1.309,4.657,2.924,5.589l34.746,20.06v3.106l3.563-2.052l-0.021-0.007
			c0.604-0.367,0.99-1.172,0.99-2.331v-27.03C448.795,100.632,447.487,98.13,445.87,97.198z"/>
		<path fill="#D4ECFF" d="M442.28,134.097l-36.352-20.988c-1.615-0.932-2.924-3.435-2.924-5.588v-27.03
			c0-2.154,1.309-3.144,2.924-2.211l36.352,20.987c1.615,0.932,2.926,3.435,2.926,5.589v27.029
			C445.206,134.04,443.895,135.029,442.28,134.097z"/>
	</g>
	<g>
		<path fill="#FFFFFF" d="M418.153,103.794c0,1.563-1.098,2.198-2.451,1.416c-1.355-0.783-2.453-2.684-2.453-4.249
			c0-1.563,1.098-2.197,2.453-1.416C417.055,100.329,418.153,102.229,418.153,103.794z"/>
		<path fill="#FFFFFF" d="M425.584,108.084c0,1.564-1.1,2.197-2.453,1.416c-1.355-0.781-2.453-2.684-2.453-4.248
			s1.098-2.198,2.453-1.417C424.485,104.617,425.584,106.52,425.584,108.084z"/>
		<path fill="#FFFFFF" d="M433.014,112.375c0,1.563-1.1,2.198-2.453,1.416c-1.355-0.783-2.453-2.684-2.453-4.249
			c0-1.563,1.098-2.198,2.453-1.416C431.915,108.909,433.014,110.811,433.014,112.375z"/>
	</g>
</g>
</svg>
