<?xml version="1.0" encoding="UTF-8"?>
<!DOCTYPE svg PUBLIC "-//W3C//DTD SVG 1.1//EN" "http://www.w3.org/Graphics/SVG/1.1/DTD/svg11.dtd">
<!-- Creator: CorelDRAW X7 -->
<svg xmlns="http://www.w3.org/2000/svg" xml:space="preserve" width="50px" height="50px" version="1.1" style="shape-rendering:geometricPrecision; text-rendering:geometricPrecision; image-rendering:optimizeQuality; fill-rule:evenodd; clip-rule:evenodd"
viewBox="0 0 2088804 2093802"
 xmlns:xlink="http://www.w3.org/1999/xlink">
 <defs>
  <style type="text/css">
   <![CDATA[
    .fil1 {fill:#FEFEFE}
    .fil0 {fill:#8B2D30}
   ]]>
  </style>
 </defs>
 <g id="Layer_x0020_1">
  <metadata id="CorelCorpID_0Corel-Layer"/>
  <path class="fil0" d="M1044906 25c742636,-4020 1043898,480800 1043898,1060875 0,580076 -330247,1034236 -1043396,1032898 -713147,-1340 -1045408,-451480 -1045408,-1031556 0,-580075 302268,-1058197 1044906,-1062217z"/>
  <path class="fil1" d="M942785 58080c4757,4613 12986,5128 19196,6648l125640 29428c6156,1457 17243,1711 20735,6598 -243,5473 130,6329 -5270,7789 -11815,3201 -35186,1051 -47671,1051 -10920,0 -29454,-3754 -40335,-5388 -39199,-5879 -83832,-19855 -119263,-22665 1957,6179 -576,1432 3281,4849 6287,5572 25364,14709 32795,18373 40134,19799 79763,37572 122429,52559 -2429,4807 -2262,3920 -6487,7008 -2967,2171 -5440,4016 -8356,5869 -19293,12293 -36546,18009 -61336,19420 -31866,1811 -62291,-12561 -96336,-12561l-19910 0c-22659,0 -68111,12121 -77831,24686 3777,5025 29041,16434 37450,20436 13017,6193 27820,13846 38176,21545 13878,10320 17182,15948 20488,37799 9397,62100 12854,48038 -14382,56506 -28786,8949 -106625,48926 -107705,71386 9032,5632 113779,6273 153875,19606 17668,5873 26047,10660 39674,18135 -2421,7202 -12023,10387 -18464,13616l-53138 27958c-5371,3001 -7383,3384 -8853,9479 33248,5580 71152,0 104529,0 13660,0 30027,15383 39694,23716l73514 57391c6313,4716 12152,9559 18302,14425 30703,24309 61269,47500 90787,72830 25270,21688 57169,56439 78488,83637 63976,81619 61185,183769 5660,269942 -17463,27102 -37094,47939 -59575,71279 -15628,16225 -34822,31430 -54412,42370 -41627,23258 -61468,35499 -113061,50553 -34502,10071 -70272,15170 -102879,27967 -32349,12701 -59393,28072 -85461,45477 -12380,8267 -26444,18344 -36993,28413 -22445,21430 -43195,41765 -63432,67496 -5064,6436 -8440,11786 -13532,19154 -13388,19380 -26526,40854 -35641,62479 -15368,36460 -23000,60400 -31423,99412 -9764,45251 -10543,95507 -2278,141061 8687,47856 15406,72360 34979,117308 4954,11373 11853,22039 17148,32684 5333,10710 13497,21317 20040,31147 39834,59856 97129,107580 165240,140618 41052,19910 107622,42460 161546,42460l48379 0c78604,0 172477,-40906 230961,-85439 11212,-8537 19148,-15155 29244,-23380 42915,-34947 86263,-97935 109835,-154700 19590,-47188 35620,-119929 31842,-178905 -8526,-133223 -55977,-222100 -128597,-293627 -46019,-45324 -32372,-32418 -130638,24661 -42749,24837 -85340,48118 -131546,66267 -5096,2001 -6719,1838 -7925,5927 2144,1851 30566,9368 35587,11033 56101,18609 102556,57449 128297,110701 30938,64001 22366,152984 -18942,209837 -22121,30444 -46254,51840 -82590,69587 -81311,39713 -172278,20277 -235333,-37969 -33290,-30754 -65572,-85620 -65572,-132762 0,-37887 618,-66532 16891,-103195 8067,-18174 21242,-40115 32705,-52686 7188,-7887 13440,-14397 21181,-21485 26246,-24034 80226,-44861 113689,-58452 30076,-12220 60233,-27615 89963,-39479 90096,-35961 142033,-62232 211532,-132768 56767,-57613 105231,-139682 126181,-218097 3149,-11786 6554,-20718 9123,-33526 2314,-11518 4719,-23540 7301,-35268 13777,-62638 10618,-137960 -9491,-197841 -12251,-36480 -30863,-69319 -55050,-98593 -4500,-5444 -9622,-11863 -14299,-16987l-38333 -37062c-3302,-2929 -5088,-3765 -8593,-7058 -37630,-35350 -114062,-84852 -158407,-119023 -26223,-20205 -45536,-31574 -59041,-64774 -3951,-9711 -4139,-15527 27,-25144 4414,-10191 6047,-10297 18771,-12722 63229,-12056 134542,-11122 198926,-7948 8451,415 19008,-1706 26089,2632 13166,8067 24208,25056 55111,-8951 7919,-8714 18915,-23417 24091,-32984 -15113,-9547 -99788,-5044 -126644,-6373 -18465,-917 -22445,389 -33195,-10698 1550,-1794 262,-894 3160,-2841 12406,-8339 31380,-4654 45494,-4654l139437 0c26371,0 42290,5772 15406,-37793 -6238,-10109 -15771,-21081 -24278,-28367 -4573,-3920 -40538,-33350 -48848,-28208 -4929,3051 592,5239 -3195,9805l-1761 1225c-725,350 -2707,565 -3648,687 -37657,4904 -103272,-6154 -121882,-30360l-30670 -36198c-16072,-17542 -114123,-57644 -138226,-65213 -54785,-17207 -100442,-18189 -157969,-18189 -12312,0 -66487,1354 -74192,5408zm370412 159673c-2251,-4698 -13526,-15132 -18092,-16717 -10120,-3517 -21573,4397 -22980,11169 -1679,8084 7573,16715 16367,16120 6751,-461 17626,-8120 24705,-10572zm-381231 976181c-48903,-9705 -79039,-16532 -121639,-44512 -12647,-8304 -34381,-28859 -42278,-41664 -12597,-20421 -17771,-33415 -23309,-60526 -9342,-45722 5151,-104359 26108,-135670 12626,-18863 23338,-30304 40002,-43957 12282,-10063 36541,-23512 54380,-29602 44431,-15170 100105,-9927 138602,9817 80663,41372 121790,135036 90571,223598 -8595,24384 -17307,36968 -29686,54286l-29803 32726c-3654,2927 -8545,5083 -10534,10423 17075,1650 80991,-25396 101210,-34935 88464,-41736 163868,-139136 172879,-239444 5216,-58044 -23825,-106999 -57814,-148245 -47087,-57142 -106237,-93886 -177062,-118865 -12567,-4433 -24209,-6552 -37058,-9877 -74958,-19390 -165048,-11874 -238394,15505 -22601,8436 -42915,18758 -62760,29690 -9384,5172 -18999,11667 -27931,17630l-50731 40283c-8978,9543 -16158,15261 -22525,22971 -25930,31400 -56761,74328 -70930,112598 -18540,50080 -30314,93306 -30310,153507 5,73256 21665,154500 60570,214249l28555 39750c15501,18824 15647,18013 33771,35936 8250,8158 15417,13606 23955,21585 7628,7132 17521,12080 26458,19044 5605,4367 21934,15056 30938,15793 14520,1191 25477,-18082 35806,-31275 3528,-4508 7014,-7806 10490,-12247 27981,-35766 87797,-78555 129351,-99696 4765,-2425 9997,-5101 14970,-7844 5576,-3077 12444,-4047 14148,-11032zm-512603 423122c9060,1024 46891,-13605 56627,-17397 27649,-10769 88225,-25463 118721,-30610 80186,-13534 61970,-2183 67339,-37891 3536,-23524 10494,-50000 18051,-71667 4801,-13767 12414,-28645 18567,-41170 4314,-8773 20781,-31816 21774,-36924 -11684,-5650 -47607,-319 -61489,1689 -34941,5057 -66363,22672 -96359,38583l-39818 28465c-39893,33168 -92594,92862 -103413,166922z"/>
 </g>
</svg>
