<svg width="111.21233" height="110" xmlns="http://www.w3.org/2000/svg">
 <metadata id="metadata139">image/svg+xml</metadata>

 <g>
  <title>Layer 1</title>
  <g id="Artboard"/>
  <g id="Multicolor">
   <circle fill="#fabc3d" cx="55" cy="55" r="55" id="circle94"/>
   <g id="g130">
    <g id="g98">
     <path fill="#ffffff" d="m25.44,49.62c1.65,1.43 4.14,1.26 5.59,-0.37c4.24,-4.74 7.97,-3.25 7.97,-3.25c0,0 -2,4 -1,12c-6.675,3.337 -8.475,12.934 -8.889,16.024c1.359,1.4 3.388,2.641 5.923,3.673c0.657,-12.822 10.966,-14.697 10.966,-14.697c3,2 13,2 17,0c3,7 8.31,5.16 12,7c2.978,1.489 3.184,4.639 3.095,6.152c1.499,-0.892 2.699,-1.879 3.504,-2.952c0.358,-0.477 0.833,-0.812 1.353,-1.005c-0.303,-3.023 -2.206,-7.364 -4.952,-9.195c4.64,-10.83 -0.02,-15.27 -7,-16.77c-5.01,-1.07 -11.2,-0.62 -16.01,0.08c-1.49,0.22 -2.85,0.46 -3.99,0.69c0,-10.76 -5.737,-15.99 -13.49,-15.99c-3.51,0 -6.414,2.198 -8.62,4.74c-2.51,2.88 -4.36,6.45 -4.87,8.83c-0.35,1.69 -0.34,3.42 0.92,4.59c0.15,0.15 0.32,0.3 0.5,0.45z" id="path96"/>
    </g>
    <g id="g102">
     <path fill="#84462d" d="m54.99,46.31c-1.49,0.22 -2.85,0.46 -3.99,0.69c0,-10.76 -5.737,-15.99 -13.49,-15.99c-3.51,0 -6.411,2.195 -8.62,4.74c-0.09,-2.69 0.77,-8.75 10.11,-8.75c11.61,0 15.73,12.18 15.99,19.31z" id="path100"/>
    </g>
    <g id="g106">
     <path fill="#84462d" d="m73.417,46.912c4.824,1.728 7.791,5.421 5.814,12.602c2.63,4.042 5.582,7.486 7.769,7.486c0,-19.687 -4.847,-21.93 -13.583,-20.088z" id="path104"/>
    </g>
    <g id="g110">
     <path fill="#df2c2c" d="m71,46.23l0,8.77c0,2.209 -1.791,4 -4,4l-12,0c-2.209,0 -4,-1.791 -4,-4l0,-8c4.84,-0.97 13.44,-2.17 20,-0.77z" id="path108"/>
    </g>
    <g id="g114">
     <circle fill="#9c6144" cx="33" cy="38" r="2" id="circle112"/>
    </g>
    <g id="g120">
     <g id="g118">
      <path fill="#9c6144" d="m55,87c-11.481,0 -25.76,-2.68 -31.4,-10.2c-0.994,-1.325 -0.725,-3.206 0.601,-4.2c1.324,-0.994 3.205,-0.726 4.2,0.6c3.498,4.665 14.187,7.8 26.599,7.8c12.412,0 23.101,-3.135 26.6,-7.8c0.995,-1.326 2.877,-1.594 4.2,-0.6c1.325,0.994 1.595,2.875 0.601,4.2c-5.642,7.52 -19.92,10.2 -31.401,10.2z" id="path116"/>
     </g>
    </g>
    <g id="g124">
     <path fill="#9c6144" d="m39,27c-9.34,0 -10.2,6.06 -10.11,8.75c2.209,-2.545 5.11,-4.74 8.62,-4.74c6.796,0 12.041,4.02 13.233,12.258l3.205,-3.205c-1.853,-6.368 -6.34,-13.063 -14.948,-13.063z" id="path122"/>
    </g>
    <g id="g128">
     <path fill="#fa5655" d="m51,47l0,8c0,1.107 0.451,2.109 1.178,2.833l12.241,-12.241c-4.994,-0.033 -10.094,0.741 -13.419,1.408z" id="path126"/>
    </g>
   </g>
  </g>
 </g>
</svg>