<?xml version="1.0" encoding="UTF-8"?>
<!DOCTYPE svg PUBLIC "-//W3C//DTD SVG 1.1//EN" "http://www.w3.org/Graphics/SVG/1.1/DTD/svg11.dtd">
<!-- Creator: CorelDRAW X7 -->
<svg xmlns="http://www.w3.org/2000/svg" xml:space="preserve" width="32px" height="32px" version="1.1" style="shape-rendering:geometricPrecision; text-rendering:geometricPrecision; image-rendering:optimizeQuality; fill-rule:evenodd; clip-rule:evenodd"
viewBox="0 0 3200 3200"
 xmlns:xlink="http://www.w3.org/1999/xlink">
 <defs>
  <style type="text/css">
   <![CDATA[
    .fil0 {fill:#1F4BFF}
   ]]>
  </style>
 </defs>
 <g id="Layer_x0020_1">
  <metadata id="CorelCorpID_0Corel-Layer"/>
  <path class="fil0" d="M1277 1600l-317 -317 136 -136 317 317 135 136 -135 136 -317 317 -136 -136 317 -317zm323 -1600l0 0c880,0 1600,720 1600,1600l0 0c0,406 -153,777 -404,1060l-340 -340c164,-195 264,-446 264,-720l0 0c0,-616 -504,-1120 -1120,-1120l0 0c-274,0 -525,100 -720,264l-340 -340c283,-251 654,-404 1060,-404zm1060 2796c-283,251 -654,404 -1060,404l0 0c-880,0 -1600,-720 -1600,-1600l0 0c0,-406 153,-777 404,-1060l340 340c-165,195 -264,446 -264,720l0 0c0,616 504,1120 1120,1120l0 0c274,0 525,-99 720,-264l340 340zm-1060 -748l640 0 0 192 -640 0 0 -192z"/>
 </g>
</svg>
